<svg width="30" height="30" viewBox="0 0 30 30" fill="none" xmlns="http://www.w3.org/2000/svg">
<path d="M15.0008 1.51351e-06C23.2642 -0.00163292 30.0049 6.6885 30.0004 15.0049C29.9959 23.2845 23.3186 30.0049 14.9902 30C6.65568 29.9955 -0.00612439 23.2502 4.22518e-06 14.9857C0.00613284 6.69463 6.73372 -0.00367596 15.0008 1.51351e-06ZM24.6996 23.77C24.7649 23.705 24.8103 23.6674 24.8466 23.6229C25.1049 23.3025 25.3721 22.9887 25.6148 22.6569C25.9351 22.2193 26.2203 21.758 26.4834 21.2832C26.8107 20.6931 27.0807 20.0774 27.3153 19.4465C27.5298 18.8703 27.6891 18.277 27.8166 17.6752C27.9142 17.2142 27.9788 16.7476 28.0262 16.2798C28.1381 15.1753 28.1026 14.0737 27.9314 12.9762C27.8235 12.284 27.6613 11.6053 27.4464 10.9384C27.3361 10.596 27.2029 10.2626 27.0693 9.92917C26.9843 9.71711 26.8846 9.51076 26.787 9.30441C26.5994 8.90847 26.389 8.52438 26.1549 8.15418C25.9735 7.86734 25.7888 7.58131 25.589 7.30755C25.3892 7.03337 25.1698 6.77309 24.9561 6.50913C24.7012 6.19409 24.4197 5.90275 24.1288 5.62122C23.8988 5.39894 23.6618 5.18319 23.4158 4.9793C23.1445 4.75456 22.8659 4.53759 22.5786 4.33329C22.2967 4.13266 22.003 3.9492 21.71 3.76492C21.3615 3.54549 20.9987 3.351 20.6244 3.17979C20.3217 3.04127 20.014 2.91378 19.7056 2.78834C19.1356 2.55666 18.5472 2.38014 17.9479 2.24367C17.3101 2.09861 16.6645 1.99687 16.0112 1.9511C15.2006 1.8939 14.3908 1.89758 13.5835 1.98788C12.9273 2.06143 12.2781 2.17625 11.6387 2.34745C11.2403 2.4541 10.8485 2.57913 10.4624 2.72092C9.787 2.96895 9.13573 3.27173 8.51225 3.63212C7.99703 3.92999 7.49857 4.2532 7.03076 4.62136C6.79991 4.80319 6.56907 4.98584 6.34884 5.17992C6.04977 5.44266 5.76581 5.72215 5.49084 6.01062C5.20198 6.31381 4.93109 6.6313 4.6741 6.96064C4.24755 7.50736 3.8692 8.08594 3.53254 8.69273C3.20813 9.27704 2.93725 9.88464 2.70272 10.509C2.54665 10.9245 2.42122 11.3511 2.31131 11.7822C2.15769 12.3853 2.04941 12.9966 1.98609 13.614C1.87414 14.7038 1.88598 15.7927 2.05064 16.8792C2.13889 17.4619 2.25411 18.0372 2.41509 18.6039C2.58301 19.1956 2.79751 19.7697 3.04756 20.3319C3.29761 20.8942 3.58688 21.4348 3.91251 21.9561C4.28718 22.5556 4.71536 23.1158 5.17705 23.6506C5.20974 23.6886 5.25305 23.7172 5.30289 23.7601C5.31964 23.7009 5.33435 23.6588 5.34375 23.6155C5.40177 23.3409 5.45693 23.0655 5.51576 22.7909C5.61586 22.3235 5.76254 21.8691 5.92842 21.4221C6.15109 20.821 6.4183 20.2408 6.75456 19.6925C6.95639 19.3635 7.17049 19.0436 7.40869 18.74C7.69551 18.3743 8.01133 18.0351 8.35249 17.7201C8.66996 17.4271 9.00826 17.1599 9.36617 16.9188C9.76208 16.6516 10.1817 16.4244 10.6131 16.2201C10.7541 16.1535 10.8951 16.082 11.0524 16.0567C11.1259 16.0448 11.1786 15.9986 11.2301 15.9324C11.1177 15.8221 11.0082 15.7118 10.8951 15.6056C10.7766 15.494 10.6503 15.3902 10.5339 15.277C10.3079 15.0572 10.1433 14.7883 9.95983 14.5354C9.7682 14.2706 9.61621 13.9809 9.48057 13.6831C9.19334 13.0526 9.01684 12.3931 8.96454 11.7021C8.9057 10.9262 8.96944 10.1629 9.19661 9.41433C9.34778 8.91664 9.55738 8.44756 9.82867 8.00627C10.1241 7.52574 10.4779 7.09262 10.8963 6.71057C11.2946 6.3465 11.7294 6.04045 12.2066 5.78998C12.7667 5.49619 13.3596 5.29556 13.9818 5.19055C14.9457 5.02751 15.8976 5.09167 16.8304 5.3875C17.2921 5.53419 17.7305 5.73522 18.1464 5.98652C18.461 6.17652 18.7552 6.39308 19.0285 6.6362C19.3415 6.91446 19.6238 7.22133 19.8735 7.55925C20.2257 8.03569 20.5051 8.55135 20.7074 9.10624C20.8778 9.57409 20.9901 10.0583 21.0351 10.5556C21.1327 11.638 20.9774 12.6799 20.5288 13.6741C20.4806 13.7811 20.4389 13.891 20.358 13.9809C20.3286 14.0136 20.3147 14.0606 20.2951 14.1015C20.2731 14.1485 20.2579 14.1999 20.2302 14.2433C20.1248 14.4075 20.0414 14.5873 19.8951 14.7234C19.8673 14.7495 19.8498 14.7867 19.8273 14.819C19.775 14.8938 19.7272 14.9718 19.6692 15.0421C19.4232 15.3404 19.1491 15.6105 18.8512 15.8568C18.8226 15.8805 18.7989 15.9096 18.7589 15.9508C18.8467 15.9896 18.9158 16.0244 18.9873 16.0513C19.4355 16.2205 19.8563 16.4457 20.2678 16.6867C20.6682 16.9213 21.04 17.1983 21.3954 17.4982C22.2244 18.1978 22.8875 19.0317 23.4138 19.976C23.5568 20.2322 23.6793 20.5003 23.8044 20.7659C24.0552 21.2995 24.2387 21.8581 24.396 22.4248C24.5043 22.815 24.5933 23.2106 24.6595 23.6106C24.6656 23.6543 24.6808 23.6972 24.6996 23.77ZM7.0614 25.3995C7.41686 25.6843 7.78171 25.9241 8.1527 26.1554C8.50734 26.3769 8.87588 26.5734 9.25136 26.7581C9.70896 26.9828 10.1772 27.1822 10.6585 27.3506C11.1149 27.5103 11.5802 27.6374 12.0505 27.7514C12.6368 27.8936 13.2313 27.9815 13.829 28.0375C14.7549 28.1241 15.6811 28.1102 16.6057 27.9872C17.2745 27.8985 17.934 27.7735 18.5824 27.59C19.1548 27.4282 19.715 27.2317 20.2579 26.9865C20.6032 26.8304 20.9435 26.6649 21.2773 26.4856C21.6173 26.3029 21.9441 26.0998 22.2649 25.8865C22.4924 25.7349 22.72 25.5817 22.9239 25.4097C22.9296 25.3884 22.9362 25.3758 22.9362 25.3631C22.9353 25.3043 22.9357 25.2454 22.9304 25.187C22.8704 24.483 22.7674 23.7867 22.5929 23.1007C22.4606 22.5801 22.2873 22.075 22.0737 21.5827C21.7913 20.9314 21.4273 20.3303 20.9754 19.7836C20.3017 18.9684 19.4727 18.3563 18.5109 17.924C18.003 17.6956 17.4706 17.5366 16.926 17.4222C16.4002 17.3119 15.867 17.2584 15.3305 17.2445C14.4317 17.2212 13.543 17.2894 12.6691 17.5203C12.0342 17.6878 11.4291 17.922 10.8583 18.2484C10.3508 18.539 9.88873 18.8863 9.47281 19.2973C8.9102 19.8539 8.45995 20.4913 8.10612 21.1969C7.79193 21.8238 7.55618 22.4812 7.3903 23.1624C7.24158 23.7724 7.14148 24.3914 7.08428 25.0166C7.07284 25.1396 7.06916 25.2634 7.0614 25.3995ZM19.1466 11.5477C19.1593 8.85699 17.25 7.02928 15.0233 7.01784C12.8072 7.0064 10.8685 8.78957 10.8513 11.1501C10.8497 11.3581 10.8697 11.5685 10.9012 11.7744C10.9347 11.9935 10.9784 12.2129 11.045 12.4237C11.1136 12.6407 11.2064 12.8515 11.3044 13.0575C11.3772 13.2099 11.4691 13.3545 11.5631 13.4955C11.7044 13.708 11.8695 13.9025 12.0464 14.0864C12.2642 14.3135 12.5101 14.5125 12.7712 14.6825C13.0098 14.8378 13.2815 14.9428 13.5385 15.0699C13.5618 15.0813 13.5851 15.0952 13.61 15.1009C14.0104 15.1933 14.4088 15.2966 14.8206 15.3314C15.0237 15.3485 15.2227 15.2922 15.4249 15.3126C15.9785 15.2145 16.5215 15.0862 17.0163 14.8014C17.6463 14.4386 18.1603 13.9556 18.5407 13.3378C18.9472 12.6779 19.1478 11.9546 19.1466 11.5477Z" fill="#999999"/>
</svg>
