<svg width="16" height="16" viewBox="0 0 16 16" fill="none" xmlns="http://www.w3.org/2000/svg">
<g clip-path="url(#clip0_142_3890)">
<path d="M5.54974 0H0.628253C0.272258 0 0 0.272258 0 0.628253V5.52877C0 5.88481 0.272258 6.15703 0.628253 6.15703C0.984249 6.15703 1.25651 5.88477 1.25651 5.52877V1.25655H5.5497C5.90574 1.25655 6.17795 0.984289 6.17795 0.628294C6.17795 0.272298 5.90578 0 5.54974 0Z" fill="#4E4B66"/>
<path d="M5.52882 14.7225H1.25655V10.4503C1.25655 10.0942 0.984289 9.82202 0.628294 9.82202C0.272298 9.82202 0 10.0942 0 10.4503V15.3508C0 15.7068 0.272258 15.979 0.628253 15.979H5.52877C5.88481 15.979 6.15703 15.7068 6.15703 15.3508C6.15707 14.9947 5.88481 14.7225 5.52882 14.7225Z" fill="#4E4B66"/>
<path d="M15.3509 9.82202C14.9949 9.82202 14.7227 10.0943 14.7227 10.4503V14.7435H10.4504C10.0944 14.7435 9.82214 15.0157 9.82214 15.3717C9.82214 15.7277 10.0944 16 10.4504 16H15.3509C15.707 16 15.9792 15.7277 15.9792 15.3717V10.4503C15.9792 10.0942 15.707 9.82202 15.3509 9.82202Z" fill="#4E4B66"/>
<path d="M15.3719 0H10.4504C10.0944 0 9.82214 0.272258 9.82214 0.628253C9.82214 0.984249 10.0944 1.25651 10.4504 1.25651H14.7436V5.5497C14.7436 5.90574 15.0159 6.17795 15.3719 6.17795C15.7278 6.17795 16.0001 5.90569 16.0001 5.5497V0.628253C16.0001 0.272258 15.7279 0 15.3719 0Z" fill="#4E4B66"/>
</g>
<defs>
<clipPath id="clip0_142_3890">
<rect width="16" height="16" fill="white"/>
</clipPath>
</defs>
</svg>
