<svg width="50" height="29" viewBox="0 0 50 29" fill="none" xmlns="http://www.w3.org/2000/svg">
<mask id="path-1-inside-1_193_4474" fill="white">
<path fill-rule="evenodd" clip-rule="evenodd" d="M6.80261 17.3501C6.81814 17.3261 6.83549 17.3034 6.85447 17.2822L6.85581 17.2807C6.93116 17.1971 7.03194 17.1368 7.14588 17.112C7.18331 17.1039 7.22216 17.0997 7.262 17.0997C7.36434 17.0997 7.46017 17.1279 7.54212 17.1769C7.56752 17.1921 7.59159 17.2093 7.6141 17.2283C7.61573 17.2297 7.61735 17.2311 7.61896 17.2325C7.70308 17.3051 7.76487 17.4029 7.79255 17.5142C7.80309 17.5565 7.80868 17.6008 7.80868 17.6463C7.80868 17.7605 7.77576 17.8515 7.73536 17.9201C7.71571 17.9535 7.69429 17.9816 7.67403 18.0045C7.6434 18.0392 7.61651 18.0767 7.59347 18.1162C7.51115 18.2574 7.47794 18.4248 7.49898 18.5889L8.14261 23.2424H6.40832L7.16505 18.7532C7.1717 18.7133 7.17501 18.6733 7.17513 18.6337L7.17514 18.6304C7.17488 18.4476 7.10681 18.2713 6.98449 18.1363C6.96209 18.1115 6.93787 18.0882 6.91191 18.0664C6.87942 18.0389 6.85045 18.008 6.82539 17.9745C6.7549 17.8803 6.71532 17.7655 6.71532 17.6463C6.71532 17.5372 6.74739 17.4355 6.80261 17.3501ZM6.30688 15.8679C6.47201 15.779 6.65082 15.7125 6.8392 15.6724V12.5889L0.443337 9.81241C0.122871 9.67507 -0.0548666 9.33036 0.0151512 8.98835C0.0851691 8.65173 0.381399 8.40667 0.728795 8.40397C0.803003 8.39946 0.919118 8.37823 1.07368 8.34162C1.07669 8.34091 1.07971 8.34019 1.08275 8.33946C1.2218 8.30631 1.39131 8.26096 1.58884 8.20436C1.62258 8.19469 1.65715 8.18469 1.69252 8.17437C1.93601 8.10331 2.21768 8.0169 2.53353 7.91669C2.8932 7.80258 3.2972 7.67055 3.73965 7.52289C3.76622 7.51402 3.79293 7.50509 3.81978 7.49611C8.60219 5.89636 17.7438 2.52161 24.0366 0.141404C24.1197 0.109964 24.2023 0.0786973 24.2844 0.0476106C24.446 -0.0116353 24.621 -0.0170213 24.7826 0.0395316L49.3912 8.44437C49.6794 8.54132 49.8759 8.80523 49.8894 9.10954C49.9029 9.41115 49.7251 9.69123 49.4478 9.81241L38.6246 14.509V26.4794C38.6246 27.8662 37.4979 28.9956 36.1121 29C36.1094 29 36.1067 29 36.104 29H15.3706C13.981 29 12.85 27.8689 12.85 26.4794V15.1984L8.30688 13.2271V15.9255C8.51099 16.0502 8.69122 16.2098 8.8392 16.3958C9.11296 16.7398 9.27636 17.1744 9.27636 17.6463C9.27636 17.8801 9.23628 18.1105 9.15826 18.3276C9.15423 18.3388 9.1501 18.35 9.14587 18.3611C9.14365 18.3669 9.1414 18.3728 9.13912 18.3786C9.09911 18.481 9.05052 18.5802 8.9936 18.6751L9.71263 23.8752C9.73956 24.0853 9.67762 24.298 9.53758 24.4596C9.39754 24.6212 9.19557 24.7127 8.98282 24.7127H5.5331C5.31766 24.7127 5.11299 24.6158 4.97295 24.4515C4.83292 24.2846 4.77367 24.0664 4.80868 23.8537L5.65159 18.8663C5.64659 18.8597 5.64164 18.8531 5.63673 18.8464C5.6325 18.8407 5.6283 18.835 5.62413 18.8292C5.57746 18.7648 5.53478 18.6978 5.49624 18.6286C5.46586 18.5741 5.43806 18.5182 5.41291 18.4611L5.41133 18.4575C5.30091 18.2055 5.24225 17.9303 5.24225 17.6463C5.24225 16.8775 5.67414 16.2086 6.30688 15.8679ZM22.0304 9.45693C22.1047 9.27222 22.2368 9.10147 22.4172 8.94977C22.4562 8.91698 22.4975 8.88507 22.5409 8.85411C23.0756 8.47285 23.9376 8.23431 24.9469 8.23431L24.9496 8.23432C26.6556 8.23503 27.9388 8.91342 27.9388 9.81241L27.9388 9.8151C27.9362 10.7128 26.6512 11.3898 24.9496 11.3905L24.9469 11.3905C24.4088 11.3905 23.9121 11.3223 23.4846 11.2008C23.1719 11.1119 22.8962 10.9946 22.6686 10.8546L10.3024 12.4866L24.9469 18.842L47.1264 9.21995L24.5564 1.51529C24.4574 1.55275 24.351 1.59301 24.2374 1.63594C24.2322 1.6379 24.227 1.63986 24.2218 1.64182C20.9233 2.88854 11.7151 6.34935 5.82264 8.36428C5.06581 8.62309 4.36369 8.85803 3.73581 9.06137C3.46511 9.14904 3.20821 9.23083 2.96667 9.30613L7.68211 11.3501L22.0304 9.45693ZM25.2431 20.3178C25.1489 20.3609 25.0492 20.3797 24.9496 20.3797C24.85 20.3797 24.7503 20.3582 24.6561 20.3178L14.3257 15.8366V26.4794C14.3257 27.0566 14.7941 27.5267 15.3706 27.5296L15.376 27.5296H36.1121C36.691 27.5296 37.1623 27.0583 37.1623 26.4794V15.1472L25.2431 20.3178ZM23.7593 10.518C23.9748 10.5734 24.2191 10.6157 24.4883 10.6387C24.6341 10.6512 24.7871 10.6579 24.9469 10.658L24.9496 10.658C25.1103 10.658 25.2642 10.6512 25.4107 10.6387C26.5211 10.5439 27.2063 10.1196 27.2063 9.8151L27.2063 9.81241C27.2023 9.50816 26.5161 9.08618 25.4108 8.99154C25.2642 8.97899 25.1103 8.9722 24.9496 8.9722L24.9469 8.9722C24.7871 8.97227 24.6341 8.97904 24.4883 8.99148C24.1878 9.01714 23.9185 9.06693 23.6854 9.13196C23.135 9.2855 22.7871 9.52398 22.7094 9.73007C22.6984 9.75917 22.6929 9.78763 22.6929 9.8151C22.6929 9.94538 22.8183 10.0976 23.0487 10.2365C23.2263 10.3436 23.4663 10.4428 23.7593 10.518Z"/>
</mask>
<path fill-rule="evenodd" clip-rule="evenodd" d="M6.80261 17.3501C6.81814 17.3261 6.83549 17.3034 6.85447 17.2822L6.85581 17.2807C6.93116 17.1971 7.03194 17.1368 7.14588 17.112C7.18331 17.1039 7.22216 17.0997 7.262 17.0997C7.36434 17.0997 7.46017 17.1279 7.54212 17.1769C7.56752 17.1921 7.59159 17.2093 7.6141 17.2283C7.61573 17.2297 7.61735 17.2311 7.61896 17.2325C7.70308 17.3051 7.76487 17.4029 7.79255 17.5142C7.80309 17.5565 7.80868 17.6008 7.80868 17.6463C7.80868 17.7605 7.77576 17.8515 7.73536 17.9201C7.71571 17.9535 7.69429 17.9816 7.67403 18.0045C7.6434 18.0392 7.61651 18.0767 7.59347 18.1162C7.51115 18.2574 7.47794 18.4248 7.49898 18.5889L8.14261 23.2424H6.40832L7.16505 18.7532C7.1717 18.7133 7.17501 18.6733 7.17513 18.6337L7.17514 18.6304C7.17488 18.4476 7.10681 18.2713 6.98449 18.1363C6.96209 18.1115 6.93787 18.0882 6.91191 18.0664C6.87942 18.0389 6.85045 18.008 6.82539 17.9745C6.7549 17.8803 6.71532 17.7655 6.71532 17.6463C6.71532 17.5372 6.74739 17.4355 6.80261 17.3501ZM6.30688 15.8679C6.47201 15.779 6.65082 15.7125 6.8392 15.6724V12.5889L0.443337 9.81241C0.122871 9.67507 -0.0548666 9.33036 0.0151512 8.98835C0.0851691 8.65173 0.381399 8.40667 0.728795 8.40397C0.803003 8.39946 0.919118 8.37823 1.07368 8.34162C1.07669 8.34091 1.07971 8.34019 1.08275 8.33946C1.2218 8.30631 1.39131 8.26096 1.58884 8.20436C1.62258 8.19469 1.65715 8.18469 1.69252 8.17437C1.93601 8.10331 2.21768 8.0169 2.53353 7.91669C2.8932 7.80258 3.2972 7.67055 3.73965 7.52289C3.76622 7.51402 3.79293 7.50509 3.81978 7.49611C8.60219 5.89636 17.7438 2.52161 24.0366 0.141404C24.1197 0.109964 24.2023 0.0786973 24.2844 0.0476106C24.446 -0.0116353 24.621 -0.0170213 24.7826 0.0395316L49.3912 8.44437C49.6794 8.54132 49.8759 8.80523 49.8894 9.10954C49.9029 9.41115 49.7251 9.69123 49.4478 9.81241L38.6246 14.509V26.4794C38.6246 27.8662 37.4979 28.9956 36.1121 29C36.1094 29 36.1067 29 36.104 29H15.3706C13.981 29 12.85 27.8689 12.85 26.4794V15.1984L8.30688 13.2271V15.9255C8.51099 16.0502 8.69122 16.2098 8.8392 16.3958C9.11296 16.7398 9.27636 17.1744 9.27636 17.6463C9.27636 17.8801 9.23628 18.1105 9.15826 18.3276C9.15423 18.3388 9.1501 18.35 9.14587 18.3611C9.14365 18.3669 9.1414 18.3728 9.13912 18.3786C9.09911 18.481 9.05052 18.5802 8.9936 18.6751L9.71263 23.8752C9.73956 24.0853 9.67762 24.298 9.53758 24.4596C9.39754 24.6212 9.19557 24.7127 8.98282 24.7127H5.5331C5.31766 24.7127 5.11299 24.6158 4.97295 24.4515C4.83292 24.2846 4.77367 24.0664 4.80868 23.8537L5.65159 18.8663C5.64659 18.8597 5.64164 18.8531 5.63673 18.8464C5.6325 18.8407 5.6283 18.835 5.62413 18.8292C5.57746 18.7648 5.53478 18.6978 5.49624 18.6286C5.46586 18.5741 5.43806 18.5182 5.41291 18.4611L5.41133 18.4575C5.30091 18.2055 5.24225 17.9303 5.24225 17.6463C5.24225 16.8775 5.67414 16.2086 6.30688 15.8679ZM22.0304 9.45693C22.1047 9.27222 22.2368 9.10147 22.4172 8.94977C22.4562 8.91698 22.4975 8.88507 22.5409 8.85411C23.0756 8.47285 23.9376 8.23431 24.9469 8.23431L24.9496 8.23432C26.6556 8.23503 27.9388 8.91342 27.9388 9.81241L27.9388 9.8151C27.9362 10.7128 26.6512 11.3898 24.9496 11.3905L24.9469 11.3905C24.4088 11.3905 23.9121 11.3223 23.4846 11.2008C23.1719 11.1119 22.8962 10.9946 22.6686 10.8546L10.3024 12.4866L24.9469 18.842L47.1264 9.21995L24.5564 1.51529C24.4574 1.55275 24.351 1.59301 24.2374 1.63594C24.2322 1.6379 24.227 1.63986 24.2218 1.64182C20.9233 2.88854 11.7151 6.34935 5.82264 8.36428C5.06581 8.62309 4.36369 8.85803 3.73581 9.06137C3.46511 9.14904 3.20821 9.23083 2.96667 9.30613L7.68211 11.3501L22.0304 9.45693ZM25.2431 20.3178C25.1489 20.3609 25.0492 20.3797 24.9496 20.3797C24.85 20.3797 24.7503 20.3582 24.6561 20.3178L14.3257 15.8366V26.4794C14.3257 27.0566 14.7941 27.5267 15.3706 27.5296L15.376 27.5296H36.1121C36.691 27.5296 37.1623 27.0583 37.1623 26.4794V15.1472L25.2431 20.3178ZM23.7593 10.518C23.9748 10.5734 24.2191 10.6157 24.4883 10.6387C24.6341 10.6512 24.7871 10.6579 24.9469 10.658L24.9496 10.658C25.1103 10.658 25.2642 10.6512 25.4107 10.6387C26.5211 10.5439 27.2063 10.1196 27.2063 9.8151L27.2063 9.81241C27.2023 9.50816 26.5161 9.08618 25.4108 8.99154C25.2642 8.97899 25.1103 8.9722 24.9496 8.9722L24.9469 8.9722C24.7871 8.97227 24.6341 8.97904 24.4883 8.99148C24.1878 9.01714 23.9185 9.06693 23.6854 9.13196C23.135 9.2855 22.7871 9.52398 22.7094 9.73007C22.6984 9.75917 22.6929 9.78763 22.6929 9.8151C22.6929 9.94538 22.8183 10.0976 23.0487 10.2365C23.2263 10.3436 23.4663 10.4428 23.7593 10.518Z" fill="#999999" stroke="#999999" stroke-width="4" mask="url(#path-1-inside-1_193_4474)"/>
</svg>
