<svg width="50" height="28" viewBox="0 0 50 28" fill="none" xmlns="http://www.w3.org/2000/svg">
<mask id="path-1-inside-1_433_1012" fill="white">
<path fill-rule="evenodd" clip-rule="evenodd" d="M6.80261 16.7518C6.81814 16.7287 6.83549 16.7067 6.85447 16.6862C6.85492 16.6858 6.85536 16.6853 6.85581 16.6848C6.93116 16.6041 7.03194 16.5458 7.14588 16.522C7.18331 16.5141 7.22216 16.51 7.262 16.51C7.36434 16.51 7.46017 16.5373 7.54212 16.5846C7.56752 16.5993 7.59159 16.6159 7.6141 16.6343C7.61573 16.6356 7.61735 16.6369 7.61896 16.6383C7.70308 16.7084 7.76487 16.8028 7.79255 16.9102C7.80309 16.9511 7.80868 16.9938 7.80868 17.0378C7.80868 17.1481 7.77576 17.2359 7.73536 17.3022C7.71571 17.3344 7.69429 17.3615 7.67403 17.3837C7.6434 17.4172 7.61651 17.4534 7.59347 17.4915C7.51115 17.6278 7.47794 17.7894 7.49898 17.9479L8.14261 22.4409H6.40832L7.16505 18.1065C7.1717 18.068 7.17501 18.0294 7.17513 17.9911C7.17514 17.9901 7.17514 17.989 7.17514 17.988C7.17488 17.8115 7.10681 17.6413 6.98449 17.5109C6.96209 17.487 6.93787 17.4645 6.91191 17.4435C6.87942 17.4169 6.85045 17.387 6.82539 17.3547C6.7549 17.2638 6.71532 17.1529 6.71532 17.0378C6.71532 16.9325 6.74739 16.8343 6.80261 16.7518ZM6.30688 15.3208C6.47201 15.2349 6.65082 15.1707 6.8392 15.1319V12.1548L0.443337 9.47405C0.122871 9.34144 -0.0548666 9.00863 0.0151512 8.67841C0.0851691 8.35339 0.381399 8.11678 0.728795 8.11418C0.803003 8.10982 0.919118 8.08933 1.07368 8.05398C1.07669 8.05329 1.07971 8.0526 1.08275 8.0519C1.2218 8.01988 1.39131 7.9761 1.58884 7.92145C1.62258 7.91211 1.65715 7.90246 1.69252 7.89249C1.93601 7.82388 2.21768 7.74046 2.53353 7.6437C2.8932 7.53352 3.2972 7.40605 3.73965 7.26348C3.76622 7.25491 3.79293 7.2463 3.81978 7.23763C8.60219 5.69304 17.7438 2.43466 24.0366 0.136528C24.1197 0.106172 24.2023 0.0759836 24.2844 0.0459689C24.446 -0.0112341 24.621 -0.0164343 24.7826 0.0381685L49.3912 8.15318C49.6794 8.24679 49.8759 8.5016 49.8894 8.79542C49.9029 9.08663 49.7251 9.35705 49.4478 9.47405L38.6246 14.0087V25.5663C38.6246 26.9053 37.4979 27.9958 36.1121 28C36.1094 28 36.1067 28 36.104 28H15.3706C13.981 28 12.85 26.9079 12.85 25.5663V14.6743L8.30688 12.771V15.3764C8.51099 15.4968 8.69122 15.6508 8.8392 15.8304C9.11296 16.1626 9.27636 16.5821 9.27636 17.0378C9.27636 17.2635 9.23628 17.486 9.15826 17.6956C9.15423 17.7064 9.1501 17.7172 9.14587 17.728C9.14365 17.7336 9.1414 17.7392 9.13912 17.7449C9.09911 17.8437 9.05052 17.9395 8.9936 18.0311L9.71263 23.0519C9.73956 23.2548 9.67762 23.4602 9.53758 23.6162C9.39754 23.7722 9.19557 23.8606 8.98282 23.8606H5.5331C5.31766 23.8606 5.11299 23.767 4.97295 23.6084C4.83292 23.4472 4.77367 23.2366 4.80868 23.0311L5.65159 18.2157C5.64659 18.2094 5.64164 18.203 5.63673 18.1966C5.6325 18.1911 5.6283 18.1855 5.62413 18.18C5.57746 18.1177 5.53478 18.0531 5.49624 17.9863C5.46586 17.9336 5.43806 17.8797 5.41291 17.8245C5.41238 17.8234 5.41186 17.8222 5.41133 17.8211C5.30091 17.5777 5.24225 17.312 5.24225 17.0378C5.24225 16.2955 5.67414 15.6497 6.30688 15.3208ZM22.0304 9.13083C22.1047 8.95249 22.2368 8.78763 22.4172 8.64116C22.4562 8.60949 22.4975 8.57869 22.5409 8.5488C23.0756 8.18068 23.9376 7.95037 24.9469 7.95037C24.9478 7.95037 24.9487 7.95037 24.9496 7.95037C26.6556 7.95106 27.9388 8.60606 27.9388 9.47405C27.9388 9.47492 27.9388 9.47579 27.9388 9.47665C27.9362 10.3433 26.6512 10.997 24.9496 10.9977C24.9487 10.9977 24.9478 10.9977 24.9469 10.9977C24.4088 10.9977 23.9121 10.9318 23.4846 10.8146C23.1719 10.7288 22.8962 10.6154 22.6686 10.4803L10.3024 12.056L24.9469 18.1923L47.1264 8.90202L24.5564 1.46304C24.4574 1.4992 24.351 1.53808 24.2374 1.57953C24.2322 1.58142 24.227 1.58331 24.2218 1.58521C20.9233 2.78893 11.7151 6.13041 5.82264 8.07586C5.06581 8.32574 4.36369 8.55258 3.73581 8.74891C3.46511 8.83355 3.20821 8.91253 2.96667 8.98523L7.68211 10.9587L22.0304 9.13083ZM25.2431 19.6172C25.1489 19.6588 25.0492 19.677 24.9496 19.677C24.85 19.677 24.7503 19.6562 24.6561 19.6172L14.3257 15.2905V25.5663C14.3257 26.1236 14.7941 26.5775 15.3706 26.5803C15.3724 26.5803 15.3742 26.5803 15.376 26.5803H36.1121C36.691 26.5803 37.1623 26.1253 37.1623 25.5663V14.6249L25.2431 19.6172ZM23.7593 10.1553C23.9748 10.2088 24.2191 10.2497 24.4883 10.2719C24.6341 10.2839 24.7871 10.2904 24.9469 10.2905C24.9478 10.2905 24.9487 10.2905 24.9496 10.2905C25.1103 10.2905 25.2642 10.284 25.4107 10.2719C26.5211 10.1804 27.2063 9.77067 27.2063 9.47665C27.2063 9.47579 27.2063 9.47492 27.2063 9.47405C27.2023 9.18029 26.5161 8.77287 25.4108 8.68149C25.2642 8.66937 25.1103 8.66281 24.9496 8.66281C24.9487 8.66281 24.9478 8.66281 24.9469 8.66281C24.7871 8.66288 24.6341 8.66942 24.4883 8.68143C24.1878 8.70621 23.9185 8.75428 23.6854 8.81706C23.135 8.96531 22.7871 9.19556 22.7094 9.39456C22.6984 9.42265 22.6929 9.45012 22.6929 9.47665C22.6929 9.60244 22.8183 9.7494 23.0487 9.88356C23.2263 9.98694 23.4663 10.0827 23.7593 10.1553Z"/>
</mask>
<path fill-rule="evenodd" clip-rule="evenodd" d="M6.80261 16.7518C6.81814 16.7287 6.83549 16.7067 6.85447 16.6862C6.85492 16.6858 6.85536 16.6853 6.85581 16.6848C6.93116 16.6041 7.03194 16.5458 7.14588 16.522C7.18331 16.5141 7.22216 16.51 7.262 16.51C7.36434 16.51 7.46017 16.5373 7.54212 16.5846C7.56752 16.5993 7.59159 16.6159 7.6141 16.6343C7.61573 16.6356 7.61735 16.6369 7.61896 16.6383C7.70308 16.7084 7.76487 16.8028 7.79255 16.9102C7.80309 16.9511 7.80868 16.9938 7.80868 17.0378C7.80868 17.1481 7.77576 17.2359 7.73536 17.3022C7.71571 17.3344 7.69429 17.3615 7.67403 17.3837C7.6434 17.4172 7.61651 17.4534 7.59347 17.4915C7.51115 17.6278 7.47794 17.7894 7.49898 17.9479L8.14261 22.4409H6.40832L7.16505 18.1065C7.1717 18.068 7.17501 18.0294 7.17513 17.9911C7.17514 17.9901 7.17514 17.989 7.17514 17.988C7.17488 17.8115 7.10681 17.6413 6.98449 17.5109C6.96209 17.487 6.93787 17.4645 6.91191 17.4435C6.87942 17.4169 6.85045 17.387 6.82539 17.3547C6.7549 17.2638 6.71532 17.1529 6.71532 17.0378C6.71532 16.9325 6.74739 16.8343 6.80261 16.7518ZM6.30688 15.3208C6.47201 15.2349 6.65082 15.1707 6.8392 15.1319V12.1548L0.443337 9.47405C0.122871 9.34144 -0.0548666 9.00863 0.0151512 8.67841C0.0851691 8.35339 0.381399 8.11678 0.728795 8.11418C0.803003 8.10982 0.919118 8.08933 1.07368 8.05398C1.07669 8.05329 1.07971 8.0526 1.08275 8.0519C1.2218 8.01988 1.39131 7.9761 1.58884 7.92145C1.62258 7.91211 1.65715 7.90246 1.69252 7.89249C1.93601 7.82388 2.21768 7.74046 2.53353 7.6437C2.8932 7.53352 3.2972 7.40605 3.73965 7.26348C3.76622 7.25491 3.79293 7.2463 3.81978 7.23763C8.60219 5.69304 17.7438 2.43466 24.0366 0.136528C24.1197 0.106172 24.2023 0.0759836 24.2844 0.0459689C24.446 -0.0112341 24.621 -0.0164343 24.7826 0.0381685L49.3912 8.15318C49.6794 8.24679 49.8759 8.5016 49.8894 8.79542C49.9029 9.08663 49.7251 9.35705 49.4478 9.47405L38.6246 14.0087V25.5663C38.6246 26.9053 37.4979 27.9958 36.1121 28C36.1094 28 36.1067 28 36.104 28H15.3706C13.981 28 12.85 26.9079 12.85 25.5663V14.6743L8.30688 12.771V15.3764C8.51099 15.4968 8.69122 15.6508 8.8392 15.8304C9.11296 16.1626 9.27636 16.5821 9.27636 17.0378C9.27636 17.2635 9.23628 17.486 9.15826 17.6956C9.15423 17.7064 9.1501 17.7172 9.14587 17.728C9.14365 17.7336 9.1414 17.7392 9.13912 17.7449C9.09911 17.8437 9.05052 17.9395 8.9936 18.0311L9.71263 23.0519C9.73956 23.2548 9.67762 23.4602 9.53758 23.6162C9.39754 23.7722 9.19557 23.8606 8.98282 23.8606H5.5331C5.31766 23.8606 5.11299 23.767 4.97295 23.6084C4.83292 23.4472 4.77367 23.2366 4.80868 23.0311L5.65159 18.2157C5.64659 18.2094 5.64164 18.203 5.63673 18.1966C5.6325 18.1911 5.6283 18.1855 5.62413 18.18C5.57746 18.1177 5.53478 18.0531 5.49624 17.9863C5.46586 17.9336 5.43806 17.8797 5.41291 17.8245C5.41238 17.8234 5.41186 17.8222 5.41133 17.8211C5.30091 17.5777 5.24225 17.312 5.24225 17.0378C5.24225 16.2955 5.67414 15.6497 6.30688 15.3208ZM22.0304 9.13083C22.1047 8.95249 22.2368 8.78763 22.4172 8.64116C22.4562 8.60949 22.4975 8.57869 22.5409 8.5488C23.0756 8.18068 23.9376 7.95037 24.9469 7.95037C24.9478 7.95037 24.9487 7.95037 24.9496 7.95037C26.6556 7.95106 27.9388 8.60606 27.9388 9.47405C27.9388 9.47492 27.9388 9.47579 27.9388 9.47665C27.9362 10.3433 26.6512 10.997 24.9496 10.9977C24.9487 10.9977 24.9478 10.9977 24.9469 10.9977C24.4088 10.9977 23.9121 10.9318 23.4846 10.8146C23.1719 10.7288 22.8962 10.6154 22.6686 10.4803L10.3024 12.056L24.9469 18.1923L47.1264 8.90202L24.5564 1.46304C24.4574 1.4992 24.351 1.53808 24.2374 1.57953C24.2322 1.58142 24.227 1.58331 24.2218 1.58521C20.9233 2.78893 11.7151 6.13041 5.82264 8.07586C5.06581 8.32574 4.36369 8.55258 3.73581 8.74891C3.46511 8.83355 3.20821 8.91253 2.96667 8.98523L7.68211 10.9587L22.0304 9.13083ZM25.2431 19.6172C25.1489 19.6588 25.0492 19.677 24.9496 19.677C24.85 19.677 24.7503 19.6562 24.6561 19.6172L14.3257 15.2905V25.5663C14.3257 26.1236 14.7941 26.5775 15.3706 26.5803C15.3724 26.5803 15.3742 26.5803 15.376 26.5803H36.1121C36.691 26.5803 37.1623 26.1253 37.1623 25.5663V14.6249L25.2431 19.6172ZM23.7593 10.1553C23.9748 10.2088 24.2191 10.2497 24.4883 10.2719C24.6341 10.2839 24.7871 10.2904 24.9469 10.2905C24.9478 10.2905 24.9487 10.2905 24.9496 10.2905C25.1103 10.2905 25.2642 10.284 25.4107 10.2719C26.5211 10.1804 27.2063 9.77067 27.2063 9.47665C27.2063 9.47579 27.2063 9.47492 27.2063 9.47405C27.2023 9.18029 26.5161 8.77287 25.4108 8.68149C25.2642 8.66937 25.1103 8.66281 24.9496 8.66281C24.9487 8.66281 24.9478 8.66281 24.9469 8.66281C24.7871 8.66288 24.6341 8.66942 24.4883 8.68143C24.1878 8.70621 23.9185 8.75428 23.6854 8.81706C23.135 8.96531 22.7871 9.19556 22.7094 9.39456C22.6984 9.42265 22.6929 9.45012 22.6929 9.47665C22.6929 9.60244 22.8183 9.7494 23.0487 9.88356C23.2263 9.98694 23.4663 10.0827 23.7593 10.1553Z" fill="#999999" stroke="#00A427" stroke-width="4" mask="url(#path-1-inside-1_433_1012)"/>
</svg>
