<svg width="27" height="27" viewBox="0 0 27 27" fill="none" xmlns="http://www.w3.org/2000/svg">
<path d="M0 14.4993C0.117486 14.2649 0.285795 14.1051 0.568289 14.1058C1.9471 14.1104 3.32657 14.0833 4.70406 14.1275C5.66045 14.1586 6.29144 14.8658 6.33302 15.8265C6.33632 15.9031 6.34226 15.9804 6.34755 16.0702C6.6043 16.0702 6.84521 16.0702 7.1013 16.0702C7.1013 14.5832 7.1013 13.1034 7.1013 11.5992C6.46041 11.5992 5.83008 11.6072 5.20041 11.5933C5.0519 11.59 4.88095 11.5464 4.76148 11.4625C4.50869 11.2843 4.50869 10.927 4.74828 10.6768C5.07038 10.3407 5.40436 10.0165 5.73371 9.68697C6.92045 8.50106 8.1072 7.31449 9.29526 6.12989C9.37578 6.05 9.46093 5.97076 9.55597 5.91067C9.7553 5.78521 10.0226 5.82483 10.185 5.98859C10.352 6.15829 10.3876 6.41449 10.2569 6.61852C10.1962 6.71361 10.115 6.79747 10.0352 6.87736C8.89264 8.02102 7.7488 9.16269 6.6043 10.3044C6.54225 10.3658 6.47163 10.4186 6.40497 10.4754C6.41223 10.4978 6.41949 10.5209 6.42675 10.5434C6.70924 10.5434 6.99702 10.5077 7.27291 10.5507C7.97321 10.6583 8.44777 10.3684 8.9329 9.87054C10.9678 7.78199 13.0475 5.73635 15.1115 3.67553C15.5438 3.24369 15.759 3.24369 16.1919 3.67685C18.4229 5.90605 20.6551 8.13393 22.8821 10.3664C23.0094 10.4945 23.1342 10.5526 23.317 10.548C23.8305 10.5355 24.3447 10.5434 24.8285 10.5434C21.7659 7.46702 18.7027 4.39064 15.6283 1.30238C15.5669 1.36049 15.4969 1.42388 15.4303 1.49123C14.7089 2.21096 13.9894 2.93268 13.2667 3.6511C13.1802 3.73694 13.0878 3.82542 12.9822 3.8822C12.7624 4.00106 12.5499 3.95418 12.3809 3.77986C12.2113 3.60488 12.1763 3.39093 12.2997 3.17435C12.3552 3.07729 12.4364 2.99145 12.5162 2.91155C13.3914 2.03466 14.268 1.15975 15.1451 0.284845C15.5247 -0.0935118 15.7748 -0.0948324 16.151 0.280223C19.5885 3.71317 23.0246 7.14677 26.4634 10.5784C26.6614 10.7765 26.8112 10.9838 26.6838 11.2763C26.5637 11.5537 26.3235 11.6025 26.0509 11.5992C25.4456 11.5926 24.8404 11.5972 24.2153 11.5972C24.2153 14.3897 24.2153 17.1696 24.2153 19.97C24.7526 19.7798 25.2819 19.7844 25.8027 20.0241C27.1056 20.623 27.4191 22.2322 26.3439 23.1691C25.1935 24.1708 23.9836 25.1098 22.7527 26.0111C21.9798 26.577 21.0538 26.8345 20.0974 26.9441C20.0386 26.9507 19.9825 26.9765 19.9258 26.9937C16.9741 26.9937 14.0218 26.9937 11.0701 26.9937C11.0127 26.9778 10.9559 26.958 10.8978 26.9461C10.4107 26.8464 9.91635 26.7731 9.4365 26.645C8.46889 26.3855 7.63791 25.8394 6.79439 25.3237C6.65578 25.2386 6.51387 25.1593 6.335 25.0543C6.35019 25.5872 6.22676 26.027 5.90202 26.4047C5.63273 26.7176 5.27367 26.8623 4.90207 26.9943C3.26783 26.9943 1.63358 26.9943 0 26.9943C0 22.8298 0 18.6645 0 14.4993ZM6.35415 17.1465C6.34556 17.2066 6.33566 17.2396 6.33566 17.2733C6.335 19.3994 6.33236 21.5256 6.34094 23.6518C6.3416 23.7397 6.42411 23.8592 6.50331 23.9087C7.098 24.2811 7.69995 24.6436 8.30323 25.0022C9.35268 25.6268 10.4906 25.9391 11.7116 25.9405C14.2416 25.9424 16.7708 25.9411 19.3007 25.9411C20.038 25.9411 20.762 25.8342 21.4254 25.5132C21.9349 25.2669 22.4345 24.9777 22.884 24.6357C23.7995 23.9397 24.6813 23.1989 25.571 22.4699C26.1228 22.0182 26.0298 21.3025 25.3842 20.9934C24.9955 20.8072 24.6364 20.8805 24.2998 21.1347C23.3751 21.8333 22.4445 22.5247 21.523 23.2273C21.2155 23.4617 20.8802 23.57 20.4967 23.5693C18.4592 23.566 16.421 23.5667 14.3835 23.5686C13.7426 23.5693 13.1545 23.3983 12.6179 23.0463C12.2727 22.8198 11.9262 22.5967 11.5803 22.3715C11.3961 22.252 11.208 22.1384 11.0292 22.011C10.7447 21.8083 10.6747 21.5105 10.8411 21.2576C11.0041 21.0093 11.309 20.9604 11.6107 21.1347C11.6635 21.1651 11.7143 21.2008 11.7658 21.2344C12.2291 21.5362 12.6951 21.834 13.1558 22.1404C13.5406 22.3966 13.9571 22.5168 14.4211 22.5154C16.4236 22.5095 18.4262 22.5128 20.4294 22.5128C20.8293 22.5128 21.001 22.3444 21.0135 21.9436C21.028 21.4873 20.7515 21.1975 20.2947 21.1968C18.9945 21.1948 17.6948 21.1862 16.3946 21.2001C15.6666 21.2074 15.0659 20.9637 14.557 20.4414C13.7109 19.5731 12.8456 18.724 11.9941 17.8609C11.5902 17.4515 11.1176 17.1953 10.5381 17.1524C10.5203 17.1511 10.5031 17.1471 10.486 17.1471C9.11639 17.1465 7.74682 17.1465 6.35415 17.1465ZM22.0445 21.5124C22.354 21.28 22.6405 21.0502 22.9428 20.8442C23.0999 20.7372 23.1461 20.6164 23.1454 20.4315C23.1395 17.5849 23.1414 14.7383 23.1414 11.8917C23.1414 11.798 23.1414 11.7049 23.1414 11.586C22.7302 11.6686 22.4854 11.4599 22.2385 11.2123C20.1178 9.08411 17.9905 6.96254 15.8646 4.83965C15.7972 4.77296 15.7266 4.70957 15.6072 4.59666C15.5431 4.68712 15.4976 4.7756 15.4309 4.84295C13.332 6.94339 11.2305 9.04053 9.13289 11.1423C8.86887 11.4071 8.6207 11.6831 8.1864 11.5946C8.1864 13.1041 8.1864 14.5838 8.1864 16.0854C8.79693 16.0854 9.39294 16.0689 9.98763 16.0906C10.4239 16.1072 10.8648 16.1415 11.2905 16.2306C11.5902 16.2934 11.8681 16.4598 12.175 16.5885C12.175 16.4848 12.175 16.3904 12.175 16.296C12.175 15.1365 12.175 13.9763 12.175 12.8168C12.175 12.2391 12.3367 12.0753 12.9076 12.0753C14.726 12.0753 16.5444 12.0753 18.3621 12.0753C18.9733 12.0753 19.1331 12.2331 19.1331 12.8353C19.1331 15.1636 19.1331 17.4918 19.1331 19.8201C19.1331 19.9218 19.1331 20.0234 19.1331 20.1423C19.5707 20.1423 19.9733 20.137 20.3759 20.1436C21.1217 20.1555 21.6353 20.5187 21.9283 21.1988C21.9692 21.2926 22.0002 21.3916 22.0445 21.5124ZM1.07322 15.1656C1.07322 18.7722 1.07322 22.3497 1.07322 25.9411C2.23289 25.9411 3.37343 25.9424 4.51397 25.9405C5.00504 25.9398 5.27697 25.6678 5.27895 25.1758C5.28225 24.5525 5.27961 23.9285 5.27961 23.3052C5.27961 20.8462 5.28027 18.3865 5.27895 15.9275C5.27895 15.4818 5.04662 15.1768 4.64796 15.1715C3.46386 15.155 2.27844 15.1656 1.07322 15.1656ZM18.0717 13.1463C16.4461 13.1463 14.8448 13.1463 13.2291 13.1463C13.2291 14.6122 13.2277 16.0603 13.2337 17.5083C13.2337 17.5757 13.2845 17.6562 13.3347 17.7077C14.0251 18.4077 14.7194 19.1043 15.4138 19.8009C15.6487 20.0366 15.9332 20.1469 16.2679 20.1423C16.7332 20.1364 17.1985 20.141 17.6638 20.141C17.7998 20.141 17.9351 20.141 18.0724 20.141C18.0717 17.787 18.0717 15.4779 18.0717 13.1463Z" fill="black"/>
<path d="M11.2952 4.37116C11.577 4.37578 11.8127 4.61944 11.8061 4.89941C11.7995 5.17938 11.5506 5.41841 11.2741 5.41115C10.9975 5.40388 10.7533 5.15032 10.7599 4.87828C10.7665 4.60029 11.0133 4.36654 11.2952 4.37116Z" fill="black"/>
<path d="M15.6555 6.94971C16.7755 6.95235 17.6976 7.86952 17.7068 8.9894C17.7161 10.1066 16.7643 11.0595 15.6469 11.0529C14.5162 11.0463 13.5889 10.108 13.5995 8.98082C13.6094 7.85961 14.5327 6.94773 15.6555 6.94971ZM15.6588 8.00488C15.101 8.00158 14.6535 8.44267 14.6535 8.99733C14.6535 9.54868 15.1076 10.003 15.6561 9.99967C16.1921 9.99637 16.6429 9.55066 16.6528 9.01383C16.662 8.46446 16.2125 8.00818 15.6588 8.00488Z" fill="black"/>
<path d="M21.9289 17.5198C21.9289 18.0375 21.9309 18.5552 21.9283 19.0729C21.9263 19.4704 21.7105 19.7239 21.3903 19.7153C21.0781 19.7068 20.8768 19.4624 20.8755 19.0762C20.8729 18.0408 20.8729 17.0054 20.8755 15.9701C20.8762 15.562 21.0781 15.3282 21.4134 15.3349C21.7349 15.3408 21.9256 15.5712 21.9283 15.9674C21.9309 16.4844 21.9289 17.0021 21.9289 17.5198Z" fill="black"/>
<path d="M21.4233 13.3282C21.7058 13.3388 21.9381 13.5877 21.9236 13.8657C21.9091 14.149 21.6642 14.3722 21.3797 14.361C21.0979 14.3497 20.8649 14.0995 20.8788 13.8228C20.8939 13.5389 21.1375 13.3177 21.4233 13.3282Z" fill="black"/>
<path d="M3.1589 23.0981C3.43282 23.0908 3.68363 23.3338 3.68957 23.6105C3.69551 23.8871 3.45526 24.1374 3.17936 24.144C2.90677 24.1499 2.65199 23.9056 2.64539 23.6309C2.63879 23.3595 2.88301 23.1053 3.1589 23.0981Z" fill="black"/>
<path d="M14.4422 16.0917C14.7181 16.0983 14.9623 16.3519 14.9563 16.6252C14.9504 16.9052 14.7049 17.1409 14.4237 17.1363C14.1405 17.1317 13.9095 16.8913 13.9141 16.6068C13.9188 16.3261 14.1663 16.0844 14.4422 16.0917Z" fill="black"/>
</svg>
