<svg width="48" height="48" viewBox="0 0 48 48" fill="none" xmlns="http://www.w3.org/2000/svg">
<circle cx="24" cy="24" r="23.5" stroke="#2EAEE4"/>
<circle cx="24" cy="24" r="20" fill="#2EAEE4"/>
<path d="M18.7823 15C22.1152 15 25.448 15 28.7805 15C28.888 15.0745 29.0082 15.1361 29.1007 15.2254C30.3272 16.4097 31.5487 17.5986 32.7741 18.784C32.9264 18.9312 33.0004 19.0965 33 19.3093C32.9974 23.3154 32.9993 27.3219 32.9974 31.3281C32.9971 32.5278 32.1122 33.3985 30.8955 33.3992C26.9634 33.4006 23.0317 33.4003 19.0996 33.3974C18.9255 33.3974 18.747 33.3823 18.578 33.343C17.6283 33.1223 17.0025 32.3273 17.0014 31.3425C16.9988 29.3005 17.0006 27.2586 17.0006 25.2162C17.0006 22.5035 17.0003 19.7907 17.001 17.078C17.0014 16.2739 17.3471 15.655 18.0549 15.2589C18.276 15.135 18.539 15.0843 18.7823 15ZM28.1033 16.078C28.0086 16.078 27.9426 16.078 27.8767 16.078C24.9683 16.078 22.0594 16.078 19.151 16.078C18.4705 16.078 18.0917 16.4504 18.0917 17.1204C18.0917 21.8402 18.0917 26.5597 18.0917 31.2794C18.0917 31.9485 18.4712 32.3215 19.1514 32.3215C23.0478 32.3215 26.9438 32.3215 30.8402 32.3215C31.533 32.3215 31.9075 31.9524 31.9075 31.269C31.9075 27.5077 31.9075 23.7464 31.9075 19.9852C31.9075 19.9207 31.9075 19.8566 31.9075 19.7734C31.8248 19.7734 31.76 19.7734 31.6951 19.7734C30.9498 19.7734 30.2045 19.7749 29.4592 19.7731C28.6392 19.7713 28.1073 19.2463 28.1037 18.434C28.1007 17.8172 28.1029 17.2 28.1029 16.5832C28.1033 16.4219 28.1033 16.2613 28.1033 16.078ZM30.9997 18.6947C30.4292 18.0988 29.8333 17.4762 29.1994 16.8144C29.1994 17.4276 29.1954 17.9814 29.2027 18.5352C29.2045 18.6605 29.3105 18.695 29.4253 18.695C29.9695 18.6947 30.5145 18.6947 30.9997 18.6947Z" fill="white"/>
<path d="M24.9997 23.0003C26.1541 23.0003 27.3084 22.9993 28.4628 23.0009C28.8673 23.0014 29.1163 23.2991 28.9453 23.5746C28.8497 23.7287 28.6866 23.7994 28.4751 23.7997C28.0553 23.8002 27.6355 23.7999 27.2158 23.7999C25.3268 23.7999 23.4379 23.8002 21.5489 23.7997C21.2358 23.7997 21.0192 23.6526 21.0013 23.4318C20.981 23.1875 21.1999 23.0022 21.5204 23.0014C22.2991 22.9993 23.0779 23.0006 23.8566 23.0006C24.2375 23.0003 24.6188 23.0003 24.9997 23.0003Z" fill="white"/>
<path d="M25.0022 28.5997C23.8616 28.5997 22.7209 28.6008 21.5806 28.5992C21.1888 28.5986 20.9267 28.3624 21.0183 28.0991C21.0804 27.92 21.293 27.8015 21.5669 27.8009C22.3195 27.7993 23.0717 27.8004 23.8242 27.8004C25.353 27.8004 26.8818 27.7999 28.4106 27.8009C28.8354 27.8012 29.1047 28.07 28.9611 28.3445C28.8752 28.5081 28.6799 28.5994 28.4063 28.5997C27.2718 28.6002 26.1372 28.5997 25.0022 28.5997Z" fill="white"/>
<path d="M24.6027 25.4004C25.6101 25.4004 26.6171 25.399 27.6244 25.4009C28.0577 25.4017 28.325 25.6993 28.1411 25.9745C28.0346 26.1339 27.8525 26.2001 27.6187 26.1998C26.6648 26.199 25.7109 26.1996 24.757 26.1996C23.6965 26.1996 22.6357 26.2006 21.5753 26.199C21.1868 26.1985 20.9271 25.9617 21.0183 25.6985C21.0817 25.5154 21.2945 25.4009 21.581 25.4006C22.588 25.3998 23.5953 25.4004 24.6027 25.4004Z" fill="white"/>
</svg>
