<svg width="48" height="48" viewBox="0 0 48 48" fill="none" xmlns="http://www.w3.org/2000/svg">
<path d="M17.46 30.9251C17.46 28.4452 17.46 26.0015 17.46 23.5289C17.352 23.5289 17.2557 23.5289 17.1593 23.5289C16.2919 23.5289 15.4237 23.5304 14.5563 23.5282C14.0519 23.5267 13.8599 23.2026 14.1193 22.7791C15.2382 20.9497 16.3622 19.1239 17.481 17.2944C17.6079 17.0877 17.7745 17 18.0173 17C24.3081 17.0036 30.5989 17.0036 36.8897 17C37.1325 17 37.2984 17.0877 37.4253 17.2951C38.5441 19.1246 39.6681 20.9504 40.787 22.7791C41.0457 23.2026 40.8529 23.5267 40.3478 23.5282C39.3905 23.5304 38.4325 23.5289 37.4542 23.5289C37.4542 25.9899 37.4542 28.4394 37.4542 30.9251C37.5456 30.9251 37.6412 30.9251 37.7369 30.9251C38.6043 30.9251 39.4724 30.9243 40.3399 30.9258C40.7515 30.9265 40.9036 31.073 40.9044 31.474C40.9058 33.5761 40.9058 35.6789 40.9044 37.781C40.9044 38.1682 40.75 38.3205 40.3587 38.3205C31.754 38.3212 23.1494 38.3212 14.5447 38.3205C14.1541 38.3205 14.0012 38.1682 14.0012 37.7788C13.9998 35.6767 13.9998 33.5739 14.0005 31.4718C14.0005 31.0788 14.1512 30.9265 14.5389 30.9258C15.5049 30.9236 16.4709 30.9251 17.46 30.9251ZM39.6775 22.6588C39.6384 22.5805 39.6246 22.5486 39.6065 22.5188C38.6891 21.0229 37.768 19.5292 36.8571 18.0282C36.768 17.8817 36.6636 17.8716 36.5238 17.8716C30.4779 17.873 24.4313 17.8738 18.3854 17.8687C18.2101 17.8687 18.1122 17.9202 18.0202 18.0703C17.1419 19.5161 16.2549 20.9562 15.3708 22.3985C15.3259 22.4717 15.2882 22.55 15.2382 22.6435C15.302 22.6508 15.336 22.6573 15.3694 22.6573C17.8912 22.6581 20.4123 22.6595 22.9341 22.6515C23.0428 22.6515 23.1726 22.579 23.2559 22.5014C24.5096 21.3383 25.7574 20.1687 27.006 19.0006C27.3785 18.6518 27.5278 18.6504 27.8981 18.997C29.1402 20.1593 30.3844 21.3195 31.6221 22.4862C31.7577 22.6138 31.8924 22.6624 32.0772 22.6624C34.5085 22.6566 36.9397 22.6588 39.3703 22.6588C39.4579 22.6588 39.5464 22.6588 39.6775 22.6588ZM18.3586 23.5362C18.3586 26.011 18.3586 28.4604 18.3586 30.9055C18.3948 30.9142 18.4115 30.9214 18.4289 30.9214C18.7543 30.9229 19.0796 30.9243 19.405 30.9243C19.9637 30.9251 20.0761 31.0345 20.0761 31.5842C20.0761 32.8618 20.0761 34.1395 20.0761 35.4164C20.0761 35.5114 20.0761 35.6064 20.0761 35.6948C21.1102 35.6948 22.1008 35.6948 23.0965 35.6948C23.0965 32.3601 23.0965 29.0412 23.0965 25.7035C22.3943 25.7035 21.7087 25.7013 21.0232 25.705C20.8044 25.7064 20.6319 25.6383 20.5449 25.4244C20.4558 25.2061 20.55 25.04 20.7065 24.8936C21.1239 24.5056 21.5406 24.1163 21.9558 23.7261C22.0102 23.6754 22.0566 23.6159 22.129 23.5362C20.85 23.5362 19.6145 23.5362 18.3586 23.5362ZM34.8295 35.6985C34.8295 34.2729 34.8288 32.8778 34.8302 31.4827C34.831 31.073 34.9773 30.9265 35.3846 30.9251C35.7701 30.9236 36.1564 30.9243 36.5491 30.9243C36.5491 28.4466 36.5491 25.9972 36.5491 23.5449C35.2926 23.5449 34.0527 23.5449 32.8128 23.5449C32.7997 23.563 32.7874 23.5818 32.7744 23.6C32.8447 23.6529 32.9207 23.7 32.9852 23.7595C33.357 24.1032 33.7258 24.4513 34.0976 24.7957C34.2795 24.9646 34.4751 25.1285 34.3643 25.4186C34.2541 25.7057 34.007 25.7108 33.7541 25.705C33.5012 25.6992 33.2483 25.7035 32.9954 25.7035C32.6012 25.7035 32.2069 25.7035 31.8113 25.7035C31.8113 29.0557 31.8113 32.3746 31.8113 35.6985C32.8193 35.6985 33.8099 35.6985 34.8295 35.6985ZM30.9149 35.697C30.9185 35.6339 30.9236 35.581 30.9236 35.5288C30.9243 32.231 30.9257 28.9324 30.917 25.6346C30.917 25.5193 30.8417 25.3779 30.7569 25.2924C29.7213 24.2417 28.6778 23.199 27.6365 22.1548C27.5807 22.099 27.5198 22.0475 27.4517 21.9859C27.3829 22.0497 27.322 22.1019 27.2662 22.1584C26.2306 23.1961 25.1973 24.2359 24.1566 25.2685C24.0226 25.4012 23.9769 25.5346 23.9769 25.7202C23.982 28.9462 23.9806 32.1715 23.9806 35.3976C23.9806 35.4947 23.9806 35.5912 23.9806 35.6934C24.2842 35.6934 24.5581 35.6934 24.8487 35.6934C24.8487 35.5774 24.8487 35.4788 24.8487 35.3801C24.8487 33.5043 24.848 31.6291 24.8494 29.7533C24.8494 29.3284 24.9936 29.1855 25.4212 29.1855C26.7676 29.1848 28.114 29.1848 29.4612 29.1855C29.9214 29.1855 30.0569 29.3211 30.0569 29.7845C30.0576 31.6603 30.0569 33.5355 30.0569 35.4113C30.0569 35.507 30.0569 35.602 30.0569 35.6977C30.3627 35.697 30.6308 35.697 30.9149 35.697ZM14.8809 37.4322C23.2755 37.4322 31.649 37.4322 40.0152 37.4322C40.0152 37.1385 40.0152 36.863 40.0152 36.5947C31.6265 36.5947 23.2602 36.5947 14.8809 36.5947C14.8809 36.8761 14.8809 37.1443 14.8809 37.4322ZM25.7364 30.0665C25.7364 31.9583 25.7364 33.8277 25.7364 35.6883C26.8973 35.6883 28.0387 35.6883 29.1742 35.6883C29.1742 33.8038 29.1742 31.9409 29.1742 30.0665C28.0242 30.0665 26.8894 30.0665 25.7364 30.0665ZM32.8606 24.8334C31.0221 23.1134 29.2416 21.4478 27.4531 19.7743C25.6531 21.4587 23.8762 23.1221 22.0472 24.8341C22.4588 24.8341 22.7914 24.8247 23.1233 24.8377C23.3015 24.845 23.4233 24.7841 23.5472 24.6594C24.6994 23.4956 25.8574 22.3383 27.0133 21.1788C27.3669 20.8242 27.5401 20.825 27.8959 21.181C29.059 22.3463 30.2214 23.513 31.3866 24.6753C31.4526 24.7413 31.5424 24.8232 31.6243 24.8261C32.0091 24.8421 32.3954 24.8334 32.8606 24.8334ZM15.7165 35.6985C15.7165 34.3867 15.7165 33.0982 15.7165 31.8169C15.423 31.8169 15.1491 31.8169 14.8824 31.8169C14.8824 33.1214 14.8824 34.4041 14.8824 35.6985C15.1643 35.6985 15.4317 35.6985 15.7165 35.6985ZM17.4593 31.814C17.1651 31.814 16.8912 31.814 16.6245 31.814C16.6245 33.1221 16.6245 34.4107 16.6245 35.6963C16.9129 35.6963 17.1803 35.6963 17.4593 35.6963C17.4593 34.3998 17.4593 33.1171 17.4593 31.814ZM18.3586 31.8068C18.3586 33.1192 18.3586 34.4078 18.3586 35.6876C18.6521 35.6876 18.926 35.6876 19.1927 35.6876C19.1927 34.3831 19.1927 33.1004 19.1927 31.8068C18.9115 31.8068 18.6441 31.8068 18.3586 31.8068ZM36.547 35.6977C36.547 34.3882 36.547 33.0997 36.547 31.8162C36.2542 31.8162 35.9803 31.8162 35.7114 31.8162C35.7114 33.12 35.7114 34.4027 35.7114 35.6977C35.9919 35.6977 36.2593 35.6977 36.547 35.6977ZM37.4521 31.8075C37.4521 33.1178 37.4521 34.407 37.4521 35.689C37.7456 35.689 38.0195 35.689 38.2876 35.689C38.2876 34.3846 38.2876 33.1026 38.2876 31.8075C38.0064 31.8075 37.739 31.8075 37.4521 31.8075ZM40.0326 31.8119C39.7355 31.8119 39.4616 31.8119 39.1884 31.8119C39.1884 33.1178 39.1884 34.4063 39.1884 35.6883C39.4811 35.6883 39.7558 35.6883 40.0326 35.6883C40.0326 34.3911 40.0326 33.1149 40.0326 31.8119Z" fill="white"/>
<path d="M22.2453 28.3145C22.2453 28.722 22.2482 29.1303 22.2446 29.5378C22.241 29.8924 22.0837 30.0519 21.7293 30.0533C21.0605 30.057 20.3916 30.057 19.7227 30.0533C19.3684 30.0512 19.2104 29.8924 19.209 29.5371C19.2061 28.7213 19.2061 27.9056 19.209 27.0898C19.2104 26.7345 19.3684 26.5764 19.7235 26.575C20.3923 26.5714 21.0612 26.5714 21.7301 26.575C22.0844 26.5764 22.241 26.7352 22.2446 27.0905C22.2482 27.4988 22.2453 27.9063 22.2453 28.3145ZM20.0952 27.456C20.0952 28.0433 20.0952 28.6075 20.0952 29.1622C20.5336 29.1622 20.9518 29.1622 21.3627 29.1622C21.3627 28.5821 21.3627 28.0245 21.3627 27.456C20.9366 27.456 20.5242 27.456 20.0952 27.456Z" fill="white"/>
<path d="M35.6978 28.3312C35.6978 28.7388 35.7014 29.147 35.6963 29.5545C35.692 29.891 35.5311 30.0505 35.1919 30.0527C34.5137 30.0563 33.8361 30.057 33.1578 30.0527C32.8223 30.0505 32.6629 29.8873 32.6614 29.5465C32.6578 28.7221 32.6578 27.8969 32.6614 27.0724C32.6629 26.7353 32.8252 26.5765 33.1658 26.575C33.8441 26.5714 34.5216 26.5707 35.1999 26.575C35.5354 26.5772 35.6934 26.7396 35.697 27.0804C35.7007 27.4981 35.6978 27.9143 35.6978 28.3312ZM33.5462 27.4452C33.5462 28.0397 33.5462 28.6039 33.5462 29.1644C33.9825 29.1644 34.4006 29.1644 34.8173 29.1644C34.8173 28.5865 34.8173 28.0289 34.8173 27.4604C34.7716 27.4546 34.7376 27.4459 34.7035 27.4459C34.3252 27.4444 33.947 27.4452 33.5462 27.4452Z" fill="white"/>
<path d="M25.283 26.1371C25.2837 24.9355 26.2634 23.9574 27.4599 23.9639C28.6584 23.9704 29.6244 24.9493 29.6215 26.1545C29.6186 27.3386 28.6418 28.3131 27.457 28.3131C26.2569 28.3138 25.283 27.3386 25.283 26.1371ZM28.7534 26.1443C28.7527 25.4192 28.1642 24.8311 27.4439 24.8355C26.7359 24.8398 26.1547 25.4243 26.1526 26.1342C26.1504 26.8556 26.7395 27.4437 27.4628 27.443C28.1679 27.4423 28.7541 26.852 28.7534 26.1443Z" fill="white"/>
<path d="M26.1606 33.0785C26.1606 32.7994 26.1606 32.5318 26.1606 32.2468C26.4433 32.2468 26.7165 32.2468 27.0042 32.2468C27.0042 32.5209 27.0042 32.7885 27.0042 33.0785C26.7368 33.0785 26.4636 33.0785 26.1606 33.0785Z" fill="white"/>
<circle cx="24" cy="24" r="23.5" stroke="#48D245"/>
<circle cx="24" cy="24" r="20" fill="#48D245"/>
<path d="M36.5489 21.5105L29.0066 16.198C28.8191 16.0659 28.5997 16 28.3802 16C28.1608 16 27.9413 16.0659 27.7538 16.198L23.0499 19.5112C23.3613 19.7021 23.6196 19.9684 23.7991 20.2893L28.3802 17.0625L35.9226 22.375H33.7676V31.9375H23.0855L23 33H33.7676C34.3627 33 34.8451 32.5244 34.8451 31.9375V23.4375H35.9226C36.3909 23.4375 36.8057 23.1393 36.9483 22.6994C37.0916 22.2595 36.93 21.7789 36.5489 21.5105Z" fill="white"/>
<path d="M23.9818 26.8072L22.8568 20.8842C22.7597 20.3723 22.2939 20 21.7501 20H17.2499C16.7061 20 16.2403 20.3723 16.1432 20.8845L15.0182 26.8076C14.9585 27.1217 15.0474 27.4451 15.2612 27.6903C15.4749 27.9355 15.7915 28.0769 16.1248 28.0769H16.8437L17.2536 33.0085C17.3001 33.5681 17.788 34 18.3749 34H20.6251C21.212 34 21.7002 33.5681 21.7467 33.0085L22.1563 28.0769H22.8752C23.2089 28.0769 23.5251 27.9351 23.7388 27.6899C23.9526 27.4448 24.0415 27.1217 23.9818 26.8072ZM21.1171 27L20.6251 32.9231H18.3749L17.8829 27H16.1248L17.2499 21.0769H18.9375V24.3529C18.9375 24.6505 19.1891 24.8914 19.5 24.8914C19.8109 24.8914 20.0625 24.6505 20.0625 24.3529V21.0769H21.7501L22.8752 27H21.1171Z" fill="white"/>
<path d="M19.5 13C18.1217 13 17 14.1217 17 15.5C17 16.8783 18.1217 18 19.5 18C20.8786 18 22 16.8786 22 15.5C22 14.1214 20.8786 13 19.5 13ZM19.5 17.1667C18.5795 17.1667 17.8333 16.4205 17.8333 15.5C17.8333 14.5795 18.5795 13.8333 19.5 13.8333C20.4205 13.8333 21.1667 14.5795 21.1667 15.5C21.1667 16.4205 20.4205 17.1667 19.5 17.1667Z" fill="white"/>
</svg>
