<svg width="48" height="48" viewBox="0 0 48 48" fill="none" xmlns="http://www.w3.org/2000/svg">
<circle cx="24" cy="24" r="23.5" stroke="#EF3928"/>
<circle cx="24" cy="24" r="20" fill="#EF3928"/>
<path d="M28.4844 14C24.4676 14 20.4508 14 16.4341 14C16.0963 14.1636 15.9992 14.4455 16 14.8264C16.0078 19.8092 16.0051 24.792 16.0051 29.7752C16.0051 29.8623 16.0051 29.9498 16.0051 30.0468C20.1724 30.0468 24.3218 30.0468 28.4844 30.0468C28.4844 24.6888 28.4844 19.3444 28.4844 14ZM22.8426 25.9763C21.7058 25.9763 20.569 25.9768 19.4322 25.9763C18.9525 25.9763 18.7349 25.7446 18.7349 25.2342C18.7345 23.6767 18.7388 22.1187 18.7314 20.5612C18.7299 20.2502 18.8371 20.0319 19.084 19.8606C20.1946 19.0896 21.2998 18.3096 22.4074 17.5342C22.74 17.3012 22.9182 17.302 23.2466 17.5321C24.3537 18.3084 25.4585 19.0888 26.5696 19.8585C26.8164 20.0295 26.9288 20.2428 26.9276 20.5547C26.9206 22.1192 26.9245 23.6836 26.9241 25.2481C26.9241 25.7417 26.7014 25.9759 26.233 25.9759C25.1029 25.9768 23.9727 25.9763 22.8426 25.9763ZM22.8281 27.6169C23.3991 27.6169 23.9704 27.6152 24.5413 27.6177C24.9036 27.6193 25.1653 27.8758 25.1688 28.2251C25.1723 28.583 24.9079 28.846 24.5347 28.8464C23.3991 28.8481 22.2635 28.8481 21.1278 28.8464C20.7519 28.846 20.4887 28.5871 20.4906 28.2284C20.4926 27.8704 20.7558 27.6181 21.1345 27.6173C21.6992 27.6156 22.2635 27.6169 22.8281 27.6169Z" fill="white"/>
<path d="M29.6547 14C29.6547 19.3498 29.6547 24.6995 29.6547 30.0834C30.4877 30.0291 31.2809 30.1294 31.9945 30.6986C31.9945 30.588 31.9945 30.5227 31.9945 30.4573C31.9945 25.7626 31.9856 21.0684 32 16.3737C32.0039 15.0368 31.0878 14.1479 30.1722 14.0288C30.1546 14.0263 30.139 14.0099 30.1222 14C29.9666 14 29.8106 14 29.6547 14Z" fill="white"/>
<path d="M23.4768 31.0009C21.2082 31.0009 18.9396 31.0013 16.671 31C16.4576 30.9998 16.2727 31.0289 16.1341 31.126C15.9753 31.2372 15.9523 31.3781 16.0932 31.5094C16.4471 31.8386 16.4408 32.1615 16.0936 32.4924C15.8501 32.7246 16.1205 32.9898 16.5938 32.9996C16.6262 33.0003 16.659 32.9999 16.6913 32.9999C21.1829 32.9999 25.6748 33.0001 30.1664 32.9996C31.0139 32.9996 31.6955 32.7228 31.9234 32.2895C32.2641 31.6421 31.4275 31.0036 30.2233 31.0018C27.975 30.9984 25.7259 31.0009 23.4768 31.0009Z" fill="white"/>
<path d="M25.7546 24.7361C25.7546 24.4218 25.7546 24.1222 25.7546 23.8226C25.7546 22.8659 25.7522 21.9088 25.7573 20.9521C25.7581 20.8218 25.7242 20.7437 25.6177 20.6698C24.7286 20.0533 23.8429 19.4308 22.9588 18.8061C22.8656 18.7404 22.7997 18.733 22.7022 18.802C21.8135 19.4316 20.92 20.0538 20.0321 20.6842C19.9732 20.7261 19.9104 20.8173 19.91 20.8859C19.9034 22.1504 19.9057 23.4145 19.9069 24.679C19.9069 24.6917 19.9123 24.7049 19.919 24.7316C20.2945 24.7316 20.6736 24.7316 21.0749 24.7316C21.0749 24.6564 21.0749 24.5837 21.0749 24.5109C21.0749 23.7248 21.0737 22.939 21.0753 22.1529C21.076 21.7136 21.3104 21.4658 21.7261 21.465C22.4604 21.4637 23.1948 21.4637 23.9291 21.465C24.3472 21.4658 24.5835 21.7115 24.5843 22.1484C24.5858 22.9345 24.5847 23.7203 24.5847 24.5064C24.5847 24.5796 24.5847 24.6531 24.5847 24.7361C24.9777 24.7361 25.3521 24.7361 25.7546 24.7361Z" fill="white"/>
<path d="M22.2583 24.737C22.6459 24.737 23.0199 24.737 23.4041 24.737C23.4041 24.0614 23.4041 23.3948 23.4041 22.7118C23.0297 22.7118 22.651 22.7118 22.2583 22.7118C22.2583 23.3775 22.2583 24.0486 22.2583 24.737Z" fill="white"/>
</svg>
