<svg width="48" height="48" viewBox="0 0 48 48" fill="none" xmlns="http://www.w3.org/2000/svg">
<circle cx="24" cy="24" r="23.5" stroke="#FFBF00"/>
<circle cx="23.9998" cy="24" r="20" fill="#FFBF00"/>
<path d="M37.8604 34.0912C37.7425 34.3008 37.5674 34.3724 37.3236 34.3724C28.4435 34.3673 19.5627 34.368 10.6826 34.368C10.6558 34.368 10.6283 34.3687 10.6016 34.368C10.3209 34.3601 10.1473 34.2162 10.1379 33.9835C10.1277 33.7399 10.3064 33.5621 10.5951 33.5592C11.3532 33.5527 12.1114 33.5563 12.8695 33.5563C12.9672 33.5563 13.0649 33.5563 13.1849 33.5563C13.4222 29.9546 13.6581 26.3775 13.8968 22.7591C13.7015 22.8148 13.5481 22.8552 13.3969 22.9015C12.803 23.0851 12.209 23.2687 11.6173 23.4573C11.3395 23.5455 11.0834 23.5347 10.8606 23.3265C10.6356 23.1162 10.6153 22.8545 10.6891 22.5777C10.9127 21.74 11.4125 21.1191 12.2119 20.6876C12.0332 20.5791 11.8763 20.4859 11.7207 20.3883C11.2216 20.0761 11.2245 19.487 11.7265 19.182C12.6612 18.6146 13.8418 18.7064 14.6781 19.4118C14.7251 19.4516 14.7722 19.4921 14.8286 19.5405C15.408 18.9854 16.0968 18.7215 16.8831 18.8423C17.2564 18.8994 17.6333 19.0403 17.9675 19.2203C18.4255 19.4668 18.411 20.066 17.9733 20.358C17.8098 20.4671 17.6377 20.5618 17.4698 20.663C17.7259 20.8661 17.9856 21.0417 18.2084 21.255C18.602 21.6308 18.8509 22.0977 18.9688 22.6305C19.1004 23.2253 18.6534 23.6409 18.0601 23.4631C17.404 23.2672 16.7529 23.0562 16.0989 22.8531C15.9976 22.8213 15.8935 22.7981 15.7531 22.7613C15.9911 26.3688 16.227 29.9459 16.4643 33.539C17.8569 33.539 19.2328 33.539 20.6233 33.539C20.6233 33.041 20.6233 32.5494 20.6233 32.0153C20.2825 32.0153 19.9432 32.0225 19.6054 32.0131C19.3233 32.0059 19.1619 31.8491 19.1612 31.6084C19.1605 31.3821 19.3044 31.226 19.5504 31.2108C19.7465 31.1985 19.9432 31.2087 20.1588 31.2087C20.1588 28.097 20.1588 25.02 20.1588 21.925C20.0742 21.9293 20.004 21.9344 19.9345 21.9366C19.4347 21.9532 19.01 21.6706 18.8422 21.2101C18.6765 20.7541 18.8183 20.2561 19.2162 19.9532C19.46 19.7682 19.7175 19.6005 19.97 19.4263C22.4109 17.7407 24.8524 16.0551 27.294 14.3703C27.8872 13.9612 28.4139 13.9525 28.9999 14.3522C29.8636 14.9427 30.7231 15.5383 31.5818 16.1346C31.8285 16.3059 31.8863 16.5611 31.7344 16.7584C31.5883 16.9485 31.3611 16.9659 31.1101 16.7938C30.2999 16.2373 29.4925 15.6771 28.6837 15.1191C28.199 14.7844 28.1223 14.7837 27.6485 15.1112C25.0666 16.8936 22.4839 18.6767 19.902 20.4599C19.8354 20.5061 19.7371 20.5408 19.7117 20.6044C19.664 20.7244 19.5989 20.9001 19.6517 20.981C19.7052 21.0634 19.8904 21.0793 20.0199 21.0858C20.0857 21.0887 20.1559 21.0063 20.2225 20.9608C22.6713 19.2702 25.1201 17.5802 27.5682 15.8889C28.0869 15.5311 28.228 15.5297 28.7561 15.8947C31.1752 17.5651 33.5936 19.2355 36.0121 20.9066C36.0866 20.9579 36.1589 21.0114 36.2356 21.0584C36.3926 21.1559 36.5525 21.1653 36.6668 21.0042C36.7876 20.8328 36.729 20.6789 36.5633 20.564C36.0367 20.1997 35.51 19.8361 34.9833 19.4725C34.2715 18.9803 33.5589 18.4888 32.8478 17.9951C32.5649 17.7985 32.4947 17.5788 32.643 17.3641C32.7885 17.1538 33.0301 17.1372 33.3086 17.3294C34.5413 18.1787 35.7733 19.0287 37.0032 19.8816C37.4777 20.2105 37.6521 20.7049 37.4799 21.1986C37.3034 21.7045 36.8628 21.9676 36.2616 21.9264C36.2349 21.9243 36.2081 21.9264 36.1575 21.9264C36.1575 25.007 36.1575 28.084 36.1575 31.2065C36.3362 31.2065 36.5228 31.2014 36.708 31.2079C36.9923 31.2173 37.1551 31.3648 37.1573 31.6047C37.1594 31.8454 36.9981 32.0059 36.7167 32.0139C36.3846 32.024 36.0518 32.016 35.7017 32.016C35.7017 32.5307 35.7017 33.0222 35.7017 33.5563C35.999 33.5563 36.3022 33.5563 36.6053 33.5563C36.831 33.5563 37.0574 33.5679 37.2817 33.5534C37.5284 33.5375 37.7201 33.6156 37.859 33.8201C37.8604 33.9105 37.8604 34.0008 37.8604 34.0912ZM24.3728 24.9087C23.7145 25.0005 23.2479 24.7743 23.0294 24.2727C22.8254 23.8043 22.9592 23.2723 23.3904 22.9434C24.7663 21.8925 26.1459 20.8451 27.5298 19.8043C28.0095 19.4429 28.4956 19.4552 28.9724 19.8231C29.465 20.2033 29.9526 20.5907 30.4395 20.9781C30.6862 21.1747 30.7346 21.4111 30.5784 21.6055C30.4199 21.8028 30.1884 21.8079 29.9352 21.6106C29.473 21.2499 29.0071 20.8936 28.5557 20.5199C28.3386 20.3399 28.165 20.3291 27.9357 20.5054C26.6198 21.5166 25.2944 22.5155 23.9727 23.5195C23.9301 23.552 23.8584 23.5817 23.8512 23.6214C23.8281 23.7508 23.7752 23.9235 23.8353 24.0038C23.8917 24.0789 24.0849 24.0948 24.2035 24.0695C24.3171 24.045 24.4133 23.9358 24.5139 23.8599C25.6128 23.0251 26.7109 22.1895 27.8098 21.3554C28.1947 21.0634 28.28 21.0663 28.6591 21.3648C29.7718 22.2416 30.8844 23.1169 31.9949 23.9951C32.1591 24.1252 32.3204 24.2069 32.4919 24.0226C32.6271 23.878 32.5772 23.6995 32.358 23.5238C32.0838 23.3041 31.8024 23.0916 31.5319 22.8675C31.325 22.6962 31.2938 22.4526 31.4407 22.2734C31.5883 22.092 31.8227 22.0746 32.0419 22.243C32.3638 22.4895 32.6872 22.736 32.9968 22.9984C33.3375 23.2875 33.4489 23.6727 33.3462 24.0977C33.2428 24.5249 32.9621 24.8111 32.5251 24.9044C32.3385 24.9441 32.1403 24.9275 31.9442 24.9369C31.9442 27.0056 31.9442 29.0757 31.9442 31.1537C33.0749 31.1537 34.189 31.1537 35.3125 31.1537C35.3176 31.0952 35.3241 31.0511 35.3241 31.0077C35.3248 27.8693 35.3263 24.7316 35.3176 21.5932C35.3176 21.4935 35.2322 21.3598 35.1461 21.2998C32.8876 19.7306 30.6218 18.1715 28.3625 16.603C28.2106 16.4975 28.1136 16.4968 27.9617 16.6023C25.7097 18.165 23.454 19.7226 21.194 21.2745C21.0392 21.3807 20.9915 21.4949 20.9915 21.6735C20.9958 24.7396 20.9944 27.805 20.9951 30.8711C20.9951 30.9651 21.0052 31.0598 21.0103 31.1544C22.1475 31.1544 23.2544 31.1544 24.3742 31.1544C24.3728 29.0713 24.3728 27.0012 24.3728 24.9087ZM31.0978 31.1559C31.105 31.0959 31.1123 31.0605 31.1123 31.0251C31.113 28.853 31.1159 26.6818 31.1065 24.5097C31.1058 24.4064 31.0255 24.2734 30.9415 24.2054C30.3396 23.7168 29.7276 23.2419 29.1185 22.762C28.8226 22.5293 28.5275 22.2965 28.2251 22.0587C27.273 22.7808 26.3434 23.492 25.4051 24.1924C25.251 24.3074 25.1946 24.4266 25.1953 24.6182C25.2018 26.6998 25.1997 28.7815 25.1997 30.8632C25.1997 30.9586 25.1997 31.0547 25.1997 31.1573C25.4493 31.1573 25.6619 31.1573 25.9036 31.1573C25.9036 31.0402 25.9036 30.9347 25.9036 30.8292C25.9036 29.2795 25.9028 27.7291 25.9043 26.1794C25.905 25.6062 26.1307 25.3843 26.7109 25.3836C27.6673 25.3829 28.6229 25.3829 29.5793 25.3836C30.2094 25.3836 30.4098 25.5802 30.4105 26.2025C30.4113 27.7435 30.4105 29.2846 30.4105 30.8256C30.4105 30.9318 30.4105 31.0381 30.4105 31.1573C30.6514 31.1559 30.8634 31.1559 31.0978 31.1559ZM29.5743 31.1573C29.5743 29.4942 29.5743 27.8527 29.5743 26.2163C28.6106 26.2163 27.6709 26.2163 26.7326 26.2163C26.7326 27.8751 26.7326 29.5101 26.7326 31.1573C27.6839 31.1573 28.6179 31.1573 29.5743 31.1573ZM15.6403 33.5433C15.6403 33.4486 15.6439 33.3857 15.6395 33.3228C15.4999 31.2007 15.3596 29.0786 15.22 26.9564C15.1274 25.5535 15.0369 24.1505 14.9393 22.7483C14.9328 22.6536 14.8705 22.5632 14.8344 22.4707C14.7946 22.5567 14.7259 22.6406 14.7193 22.7295C14.6304 23.9698 14.5501 25.2109 14.4676 26.4519C14.3482 28.2502 14.2281 30.0486 14.1095 31.8469C14.0726 32.4092 14.04 32.9716 14.0046 33.5433C14.5653 33.5433 15.0941 33.5433 15.6403 33.5433ZM31.0985 32.0355C29.1308 32.0355 27.179 32.0355 25.2149 32.0355C25.2149 32.5451 25.2149 33.0359 25.2149 33.5397C27.1826 33.5397 29.1351 33.5397 31.0985 33.5397C31.0985 33.0323 31.0985 32.5415 31.0985 32.0355ZM12.3385 19.8072C12.7031 20.0197 13.0489 20.2242 13.3962 20.4245C13.5763 20.5285 13.6913 20.6717 13.6479 20.8863C13.6053 21.0974 13.457 21.195 13.2443 21.2217C12.803 21.2774 12.4123 21.4508 12.0861 21.7566C11.8372 21.9893 11.6397 22.2568 11.5399 22.6297C12.5722 22.3103 13.5655 21.9951 14.5645 21.7002C14.7251 21.6525 14.9248 21.6532 15.0854 21.7002C16.0005 21.9691 16.9099 22.2589 17.8214 22.5408C17.9082 22.5676 17.9958 22.5914 18.1354 22.6319C17.8026 21.8122 17.2513 21.3612 16.4498 21.2289C16.2219 21.1914 16.0432 21.1176 15.9998 20.8777C15.955 20.6326 16.1148 20.5025 16.3073 20.3934C16.6408 20.2047 16.9692 20.006 17.3345 19.7913C17.2325 19.7494 17.1776 19.7226 17.1197 19.7046C16.3861 19.4769 15.6851 19.7183 15.2149 20.3587C14.9631 20.7013 14.6875 20.702 14.4365 20.3601C14.3829 20.2879 14.3301 20.2141 14.2694 20.1476C13.7912 19.6243 12.9759 19.4704 12.3385 19.8072ZM31.9449 32.0348C31.9449 32.5545 31.9449 33.046 31.9449 33.5404C32.9237 33.5404 33.8837 33.5404 34.8575 33.5404C34.8575 33.0337 34.8575 32.5437 34.8575 32.0348C33.8837 32.0348 32.9245 32.0348 31.9449 32.0348ZM21.4689 32.029C21.4689 32.5538 21.4689 33.0446 21.4689 33.5397C22.4441 33.5397 23.4034 33.5397 24.3641 33.5397C24.3641 33.0251 24.3641 32.5278 24.3641 32.029C23.3889 32.029 22.4362 32.029 21.4689 32.029Z" fill="white"/>
<path d="M14.8358 15.005C13.9184 15.0101 13.174 14.2808 13.1675 13.3708C13.161 12.4492 13.9105 11.6931 14.8278 11.6946C15.7393 11.696 16.4765 12.4355 16.4787 13.3491C16.4801 14.2685 15.7545 14.9999 14.8358 15.005ZM15.6662 13.3585C15.6684 12.8959 15.2966 12.5135 14.8372 12.5063C14.3713 12.4991 13.9763 12.8923 13.9799 13.3606C13.9836 13.8218 14.3612 14.1933 14.8256 14.1926C15.2951 14.1926 15.6641 13.8261 15.6662 13.3585Z" fill="white"/>
<path d="M15.2879 10.593C15.212 10.7635 15.1736 10.9356 15.0731 11.0556C14.9414 11.2117 14.6868 11.182 14.5399 11.0346C14.3605 10.8546 14.3605 10.3089 14.5392 10.1268C14.6846 9.97858 14.9436 9.94678 15.0716 10.1043C15.1758 10.2323 15.2127 10.4137 15.2879 10.593Z" fill="white"/>
<path d="M15.3105 16.1355C15.2056 16.3292 15.1535 16.5214 15.0298 16.632C14.8721 16.7723 14.6703 16.7217 14.5234 16.5619C14.3657 16.3899 14.365 15.8673 14.5227 15.6953C14.6696 15.5348 14.8728 15.4821 15.0284 15.6237C15.1564 15.7408 15.2085 15.9418 15.3105 16.1355Z" fill="white"/>
<path d="M12.9672 14.6515C12.9744 14.8922 12.8015 14.9919 12.6265 15.0939C12.4507 15.1958 12.2713 15.2905 12.0716 15.1697C11.8878 15.0584 11.822 14.8893 11.8972 14.6826C11.9703 14.4824 12.4304 14.2135 12.6308 14.2569C12.8384 14.3017 12.9607 14.431 12.9672 14.6515Z" fill="white"/>
<path d="M17.7759 14.8792C17.7614 15.0403 17.6602 15.1741 17.4569 15.2153C17.242 15.2586 16.7884 15.0179 16.7117 14.8134C16.6372 14.6146 16.6835 14.4382 16.8666 14.3168C17.0655 14.1853 17.2413 14.2771 17.4185 14.3811C17.705 14.5488 17.7817 14.6399 17.7759 14.8792Z" fill="white"/>
<path d="M12.2675 11.477C12.5504 11.4733 12.9649 11.8094 12.9678 12.0451C12.9714 12.2684 12.8072 12.4426 12.5851 12.4513C12.2842 12.4629 11.8639 12.1246 11.8682 11.8738C11.8733 11.6584 12.0527 11.4798 12.2675 11.477Z" fill="white"/>
<path d="M16.9563 12.4434C16.9042 12.3914 16.7494 12.3046 16.7161 12.1839C16.6821 12.0618 16.7262 11.8688 16.8109 11.7741C16.9245 11.6469 17.101 11.5435 17.2681 11.5067C17.3918 11.4799 17.5886 11.5363 17.6681 11.6281C17.7484 11.7206 17.7651 11.9129 17.7361 12.0452C17.6956 12.2302 17.2464 12.4665 16.9563 12.4434Z" fill="white"/>
<path d="M23.8316 27.2087C23.8316 27.5781 23.8374 27.9474 23.8309 28.316C23.823 28.7548 23.5625 29.028 23.1299 29.0468C22.8782 29.0576 22.625 29.0583 22.3732 29.0461C21.976 29.0258 21.7019 28.7772 21.6925 28.3818C21.6744 27.6077 21.6744 26.8328 21.691 26.0587C21.6997 25.6496 21.9811 25.3966 22.3884 25.3843C22.6402 25.3764 22.8934 25.375 23.1451 25.3851C23.5473 25.401 23.8172 25.6691 23.8287 26.0739C23.8403 26.4519 23.8316 26.83 23.8316 27.2087ZM23.0004 28.2235C23.0004 27.5289 23.0004 26.8675 23.0004 26.2062C22.8297 26.2062 22.6799 26.2062 22.5186 26.2062C22.5186 26.8863 22.5186 27.5535 22.5186 28.2235C22.6901 28.2235 22.8398 28.2235 23.0004 28.2235Z" fill="white"/>
<path d="M32.4941 27.2201C32.4941 26.8421 32.489 26.4641 32.4955 26.086C32.5028 25.6661 32.769 25.3979 33.1893 25.3842C33.4324 25.3762 33.6762 25.377 33.9192 25.3835C34.3439 25.395 34.6181 25.6538 34.6239 26.0745C34.634 26.8305 34.6325 27.5866 34.6246 28.3426C34.6195 28.7575 34.3663 29.0213 33.9583 29.0445C33.6892 29.0596 33.4172 29.0604 33.1481 29.043C32.7523 29.017 32.5049 28.7503 32.497 28.3549C32.4883 27.9762 32.4941 27.5981 32.4941 27.2201ZM33.7977 26.2104C33.6241 26.2104 33.4758 26.2104 33.3217 26.2104C33.3217 26.8876 33.3217 27.5483 33.3217 28.2234C33.4845 28.2234 33.6328 28.2234 33.7977 28.2234C33.7977 27.549 33.7977 26.8891 33.7977 26.2104Z" fill="white"/>
<path d="M28.3696 19.1575C28.081 19.1575 27.7923 19.1611 27.5044 19.1568C27.2063 19.1524 27.0313 19.0021 27.0276 18.7571C27.024 18.5091 27.1984 18.3494 27.4914 18.3472C28.0867 18.3436 28.6814 18.3429 29.2768 18.3472C29.5488 18.3494 29.7275 18.512 29.7318 18.7433C29.7354 18.9746 29.5582 19.1481 29.2898 19.1546C28.9831 19.1633 28.6763 19.1575 28.3696 19.1575Z" fill="white"/>
<path d="M28.1396 24.5814C27.7888 24.5814 27.4379 24.5857 27.0878 24.5799C26.8006 24.5756 26.6443 24.4325 26.6414 24.1867C26.6385 23.946 26.7969 23.7783 27.0755 23.7747C27.7945 23.7653 28.5144 23.7653 29.2334 23.774C29.5221 23.7776 29.6957 23.9576 29.6834 24.2019C29.6718 24.4346 29.5026 24.577 29.219 24.5806C28.8587 24.585 28.4992 24.5821 28.1396 24.5814Z" fill="white"/>
<path d="M26.9236 28.6816C26.9265 28.4178 27.0915 28.24 27.3317 28.2407C27.5718 28.2414 27.7332 28.4193 27.7346 28.6852C27.7361 28.9606 27.5588 29.1536 27.3143 29.1435C27.0799 29.1341 26.92 28.9447 26.9236 28.6816Z" fill="white"/>
</svg>
