<svg width="20" height="15" viewBox="0 0 20 15" fill="none" xmlns="http://www.w3.org/2000/svg">
<path d="M18.1444 6.23461V1.78078C18.1444 0.798867 17.3455 0 16.3636 0H3.63641C2.65449 0 1.85563 0.798867 1.85563 1.78078V6.23461C0.787031 6.53043 0 7.5109 0 8.67231V12.0564C0 12.3843 0.265859 12.6502 0.59375 12.6502H1.85563V13.7183C1.85563 14.0462 2.12148 14.312 2.44937 14.312C2.77727 14.312 3.04312 14.0462 3.04312 13.7183V12.6502H16.9569V13.7183C16.9569 14.0462 17.2227 14.312 17.5506 14.312C17.8785 14.312 18.1444 14.0462 18.1444 13.7183V12.6502H19.4062C19.7341 12.6502 20 12.3843 20 12.0564V8.67231C20 7.5109 19.2129 6.53043 18.1444 6.23461ZM3.04312 1.78078C3.04312 1.45367 3.3093 1.1875 3.63641 1.1875H16.3636C16.6907 1.1875 16.9569 1.45367 16.9569 1.78078V6.14274H15.5657V4.9509C15.5657 3.91453 14.7226 3.07141 13.6862 3.07141H11.2858C10.7887 3.07141 10.3365 3.26566 10 3.58188C9.66359 3.2657 9.21133 3.07141 8.7143 3.07141H6.31387C5.2775 3.07141 4.43437 3.91457 4.43437 4.9509V6.14274H3.04312V1.78078ZM14.3782 4.9509V6.14274H10.5938V4.9509C10.5938 4.5693 10.9042 4.25891 11.2857 4.25891H13.6862C14.0678 4.25891 14.3782 4.56934 14.3782 4.9509ZM9.40621 4.9509V6.14274H5.62176V4.9509C5.62176 4.5693 5.93223 4.25891 6.31375 4.25891H8.71418C9.09578 4.25891 9.40621 4.56934 9.40621 4.9509ZM18.8125 11.4627H1.1875V8.67231C1.1875 7.9323 1.78953 7.33023 2.52957 7.33023H17.4704C18.2104 7.33023 18.8125 7.93227 18.8125 8.67231V11.4627Z" fill="#4E4B66"/>
</svg>
