<svg width="19" height="20" viewBox="0 0 19 20" fill="none" xmlns="http://www.w3.org/2000/svg">
<path d="M3.21225 16.0803L3.21238 16.0803C3.43305 16.0926 3.71635 16.102 4.06146 16.102C5.22173 16.102 7.0859 15.9932 9.64359 15.5119C12.9595 14.8865 14.9507 14.1037 15.8244 13.7041C16.622 13.3387 17.1401 12.964 17.4336 12.6052C17.7115 12.2654 17.7862 11.9465 17.7198 11.6155C17.5788 10.9129 17.3663 10.5355 17.1038 10.2636C16.8195 9.96917 16.4432 9.75799 15.8542 9.43587L15.8534 9.43545L15.5524 9.27022L15.267 9.11359V9.09756C14.9413 8.88226 14.6499 8.61285 14.4015 8.21573C14.095 7.72566 13.8765 7.07664 13.6954 6.17269C13.3217 4.30939 12.5032 3.01419 11.3746 2.25948C10.2452 1.5043 8.72396 1.23593 6.83731 1.58879C4.95095 1.94619 3.64869 2.7469 2.8975 3.85182C2.14677 4.95604 1.88785 6.45027 2.26173 8.31392L3.21225 16.0803ZM3.21225 16.0803C2.33176 16.0314 1.70379 15.8719 1.28941 15.6438C0.894731 15.4265 0.700198 15.1535 0.633717 14.8216L0.633671 14.8214M3.21225 16.0803L0.633671 14.8214M0.633671 14.8214C0.492606 14.1187 0.544368 13.6939 0.68127 13.3502C0.829898 12.977 1.09524 12.6467 1.51769 12.1334L1.5179 12.1332M0.633671 14.8214L1.5179 12.1332M1.5179 12.1332L1.73325 11.8712L1.73326 11.8713M1.5179 12.1332L1.73326 11.8713M1.73326 11.8713L1.7351 11.869M1.73326 11.8713L1.7351 11.869M1.7351 11.869C2.05153 11.4799 2.29807 11.0581 2.39685 10.4671M1.7351 11.869L2.39685 10.4671M2.39685 10.4671C2.49174 9.89951 2.4431 9.21743 2.26174 8.31398L2.39685 10.4671ZM6.66568 18.6279C6.1838 18.6279 5.73453 18.4978 5.35166 18.2729C6.18476 18.2272 7.20725 18.1332 8.40891 17.9563C7.9555 18.3711 7.34326 18.6279 6.66568 18.6279Z" stroke="#4E4B66" stroke-width="1.1"/>
</svg>
