<svg width="12" height="12" viewBox="0 0 12 12" fill="none" xmlns="http://www.w3.org/2000/svg">
<path fill-rule="evenodd" clip-rule="evenodd" d="M10.875 1.5H9.75V0.75H9V1.5H3V0.75H2.25V1.5H1.125L0.75 1.875V10.875L1.125 11.25H10.875L11.25 10.875V1.875L10.875 1.5ZM10.5 10.5H1.5V3.75H10.5V10.5ZM10.5 3H1.5V2.25H10.5V3ZM3 6H2.25V6.75H3V6ZM2.25 7.5H3V8.25H2.25V7.5ZM3 9H2.25V9.75H3V9ZM4.5 6H5.25V6.75H4.5V6ZM5.25 7.5H4.5V8.25H5.25V7.5ZM4.5 9H5.25V9.75H4.5V9ZM5.25 4.5H4.5V5.25H5.25V4.5ZM6.75 6H7.5V6.75H6.75V6ZM7.5 7.5H6.75V8.25H7.5V7.5ZM6.75 9H7.5V9.75H6.75V9ZM7.5 4.5H6.75V5.25H7.5V4.5ZM9 6H9.75V6.75H9V6ZM9.75 7.5H9V8.25H9.75V7.5ZM9 4.5H9.75V5.25H9V4.5Z" fill="#717171"/>
</svg>
