<svg width="49" height="49" viewBox="0 0 49 49" fill="none" xmlns="http://www.w3.org/2000/svg">
<g filter="url(#filter0_d_193_7816)">
<circle cx="24.5" cy="22.5" r="20.5" fill="#00B04F"/>
</g>
<mask id="path-2-inside-1_193_7816" fill="white">
<path d="M32.1348 23.1191C32.1348 23.0117 32.0957 22.9238 32.0176 22.8457L25.416 16.2051C25.2696 16.0391 25.1621 16 25.0547 16C24.8399 16 24.6739 16.166 24.6739 16.3711C24.6739 16.4785 24.7032 16.5762 24.7813 16.6445L28.6778 20.5508L31.0118 22.8066L28.8731 22.748H14.3711C14.166 22.748 14 22.9043 14 23.1191C14 23.334 14.166 23.4902 14.3711 23.4902H28.8731L31.0118 23.4414L28.6778 25.6875L24.7813 29.5938C24.7129 29.6621 24.6739 29.7696 24.6739 29.877C24.6739 30.0723 24.8399 30.2383 25.0547 30.2383C25.1621 30.2383 25.25 30.1993 25.3282 30.1211L32.0176 23.3926C32.0957 23.3145 32.1348 23.2266 32.1348 23.1191Z"/>
</mask>
<path d="M32.0176 22.8457L28.4716 26.3708L28.4814 26.3806L32.0176 22.8457ZM25.416 16.2051L21.6658 19.5121L21.7647 19.6242L21.87 19.7302L25.416 16.2051ZM24.7813 16.6445L28.3212 13.1134L28.2017 12.9936L28.0744 12.8822L24.7813 16.6445ZM28.6778 20.5508L25.1378 24.0819L25.1701 24.1142L25.2029 24.146L28.6778 20.5508ZM31.0118 22.8066L30.8748 27.8048L43.7424 28.1573L34.4866 19.2114L31.0118 22.8066ZM28.8731 22.748L29.01 17.7499L28.9416 17.748H28.8731V22.748ZM28.8731 23.4902V28.4902H28.9301L28.9872 28.4889L28.8731 23.4902ZM31.0118 23.4414L34.4788 27.0442L43.7213 18.1499L30.8976 18.4427L31.0118 23.4414ZM28.6778 25.6875L25.2108 22.0847L25.1739 22.1202L25.1378 22.1564L28.6778 25.6875ZM24.7813 29.5938L28.3142 33.1319L28.3212 33.1249L24.7813 29.5938ZM25.3282 30.1211L28.8637 33.6566L28.8688 33.6514L28.874 33.6463L25.3282 30.1211ZM32.0176 23.3926L28.4813 19.8577L28.4717 19.8674L32.0176 23.3926ZM37.1348 23.1191C37.1348 21.5751 36.4877 20.2452 35.5538 19.3108L28.4814 26.3806C28.147 26.0461 27.7845 25.5764 27.5164 24.9565C27.2441 24.3272 27.1348 23.6941 27.1348 23.1191H37.1348ZM35.5635 19.3206L28.9619 12.68L21.87 19.7302L28.4716 26.3708L35.5635 19.3206ZM29.1661 12.898C28.84 12.5282 28.3083 12.0108 27.5302 11.6056C26.6634 11.1542 25.7981 11 25.0547 11V21C24.4187 21 23.6608 20.8653 22.9112 20.475C22.2503 20.1308 21.8456 19.7159 21.6658 19.5121L29.1661 12.898ZM25.0547 11C22.1631 11 19.6739 13.3207 19.6739 16.3711H29.6739C29.6739 19.0114 27.5166 21 25.0547 21V11ZM19.6739 16.3711C19.6739 17.3435 19.9561 19.0659 21.4881 20.4069L28.0744 12.8822C29.4503 14.0865 29.6739 15.6136 29.6739 16.3711H19.6739ZM21.2413 20.1756L25.1378 24.0819L32.2177 17.0197L28.3212 13.1134L21.2413 20.1756ZM25.2029 24.146L27.5369 26.4018L34.4866 19.2114L32.1526 16.9556L25.2029 24.146ZM31.1487 17.8085L29.01 17.7499L28.7361 27.7462L30.8748 27.8048L31.1487 17.8085ZM28.8731 17.748H14.3711V27.748H28.8731V17.748ZM14.3711 17.748C11.4914 17.748 9 20.0568 9 23.1191H19C19 25.7518 16.8406 27.748 14.3711 27.748V17.748ZM9 23.1191C9 26.1815 11.4915 28.4902 14.3711 28.4902V18.4902C16.8405 18.4902 19 20.4864 19 23.1191H9ZM14.3711 28.4902H28.8731V18.4902H14.3711V28.4902ZM28.9872 28.4889L31.1259 28.4401L30.8976 18.4427L28.7589 18.4915L28.9872 28.4889ZM27.5448 19.8386L25.2108 22.0847L32.1448 29.2902L34.4788 27.0442L27.5448 19.8386ZM25.1378 22.1564L21.2413 26.0627L28.3212 33.1249L32.2177 29.2186L25.1378 22.1564ZM21.2483 26.0556C20.0716 27.2306 19.6739 28.7019 19.6739 29.877H29.6739C29.6739 30.8372 29.3541 32.0935 28.3142 33.1319L21.2483 26.0556ZM19.6739 29.877C19.6739 33.0033 22.2511 35.2383 25.0547 35.2383V25.2383C27.4286 25.2383 29.6739 27.1412 29.6739 29.877H19.6739ZM25.0547 35.2383C26.5963 35.2383 27.9271 34.5932 28.8637 33.6566L21.7926 26.5855C22.1278 26.2504 22.5981 25.8875 23.2187 25.6193C23.8485 25.3471 24.4812 25.2383 25.0547 25.2383V35.2383ZM28.874 33.6463L35.5634 26.9178L28.4717 19.8674L21.7823 26.5958L28.874 33.6463ZM35.5538 26.9274C36.4877 25.9931 37.1348 24.6632 37.1348 23.1191H27.1348C27.1348 22.5442 27.2441 21.9111 27.5164 21.2817C27.7845 20.6619 28.147 20.1922 28.4814 19.8577L35.5538 26.9274Z" fill="white" mask="url(#path-2-inside-1_193_7816)"/>
<defs>
<filter id="filter0_d_193_7816" x="0" y="0" width="49" height="49" filterUnits="userSpaceOnUse" color-interpolation-filters="sRGB">
<feFlood flood-opacity="0" result="BackgroundImageFix"/>
<feColorMatrix in="SourceAlpha" type="matrix" values="0 0 0 0 0 0 0 0 0 0 0 0 0 0 0 0 0 0 127 0" result="hardAlpha"/>
<feOffset dy="2"/>
<feGaussianBlur stdDeviation="2"/>
<feComposite in2="hardAlpha" operator="out"/>
<feColorMatrix type="matrix" values="0 0 0 0 0 0 0 0 0 0 0 0 0 0 0 0 0 0 0.15 0"/>
<feBlend mode="normal" in2="BackgroundImageFix" result="effect1_dropShadow_193_7816"/>
<feBlend mode="normal" in="SourceGraphic" in2="effect1_dropShadow_193_7816" result="shape"/>
</filter>
</defs>
</svg>
