<svg width="18" height="18" viewBox="0 0 18 18" fill="none" xmlns="http://www.w3.org/2000/svg">
<path fill-rule="evenodd" clip-rule="evenodd" d="M9 1.8C5.02355 1.8 1.8 5.02355 1.8 9C1.8 12.9764 5.02355 16.2 9 16.2C12.9764 16.2 16.2 12.9764 16.2 9C16.2 5.02355 12.9764 1.8 9 1.8ZM0 9C0 4.02944 4.02944 0 9 0C13.9706 0 18 4.02944 18 9C18 13.9706 13.9706 18 9 18C4.02944 18 0 13.9706 0 9ZM9 3.6C9.49706 3.6 9.9 4.00294 9.9 4.5V8.62721L12.3364 11.0636C12.6879 11.4151 12.6879 11.9849 12.3364 12.3364C11.9849 12.6879 11.4151 12.6879 11.0636 12.3364L8.3636 9.6364C8.19482 9.46761 8.1 9.2387 8.1 9V4.5C8.1 4.00294 8.50294 3.6 9 3.6Z" fill="#2EAEE4"/>
</svg>
