<svg width="16" height="16" viewBox="0 0 16 16" fill="none" xmlns="http://www.w3.org/2000/svg">
<path d="M1.00002 7.38699C0.99732 8.42349 1.23948 9.44596 1.70679 10.3711C2.26088 11.4798 3.11268 12.4123 4.16679 13.0642C5.2209 13.716 6.43568 14.0616 7.67508 14.0621C8.71157 14.0648 9.73405 13.8226 10.6592 13.3553L15.1354 14.8474L13.6434 10.3711C14.1107 9.44596 14.3528 8.42349 14.3501 7.38699C14.3497 6.1476 14.0041 4.93281 13.3522 3.8787C12.7004 2.82459 11.7679 1.97279 10.6592 1.41871C9.73405 0.951399 8.71157 0.709234 7.67508 0.711936H7.28243C5.64559 0.80224 4.09957 1.49312 2.94039 2.6523C1.78121 3.81149 1.09033 5.3575 1.00002 6.99434V7.38699Z" stroke="white" stroke-linecap="round" stroke-linejoin="round"/>
<circle cx="4.76945" cy="7.30857" r="0.942363" fill="white"/>
<circle cx="7.59654" cy="7.30857" r="0.942363" fill="white"/>
<circle cx="10.4236" cy="7.30857" r="0.942363" fill="white"/>
</svg>
