<svg width="30" height="29" viewBox="0 0 30 29" fill="none" xmlns="http://www.w3.org/2000/svg">
<path d="M15.6559 0.0210158C18.5678 0.0210158 21.4825 0.0868347 24.3931 0.00221043C27.4152 -0.0851003 29.7103 2.42676 29.713 5.29458C29.717 8.67418 29.7157 12.0538 29.7157 15.4347C29.7157 17.9439 29.7359 20.4544 29.7063 22.9636C29.6767 25.5104 27.9191 27.6569 25.5084 28.0773C24.8244 28.1969 24.1068 28.1431 23.4054 28.1512C22.5185 28.1606 21.6316 28.1606 20.7434 28.1498C20.097 28.1431 19.6899 27.771 19.6738 27.2042C19.6576 26.6145 20.0688 26.1927 20.7326 26.1833C21.9877 26.1645 23.2428 26.1806 24.4992 26.1753C26.2528 26.1672 27.5724 24.9341 27.7175 23.1745C27.7296 23.024 27.7323 22.8736 27.7323 22.7231C27.7337 16.9674 27.731 11.2116 27.735 5.45577C27.7363 4.53162 27.4783 3.70553 26.8629 3.00973C26.2918 2.36497 25.5823 2.0023 24.7048 2.0023C18.6619 2.0023 12.619 1.99558 6.57742 2.00767C4.89637 2.01036 3.58082 3.37375 3.5002 5.15086C3.47332 5.75263 3.49885 6.35574 3.4881 6.95752C3.47601 7.60093 3.05138 8.04285 2.47491 8.02942C1.91993 8.01599 1.48858 7.57944 1.51143 6.96289C1.5504 5.93128 1.50202 4.86877 1.73449 3.87612C2.28812 1.5053 4.28361 0.0250455 6.71851 0.0210158C9.6963 0.0183293 12.6754 0.0210158 15.6559 0.0210158Z" fill="#999999"/>
<path d="M5.48659 16.9823C2.1769 14.3347 2.47925 10.1196 4.76499 7.84151C7.11792 5.49486 10.8832 5.468 13.2724 7.76763C15.6119 10.0202 15.9572 14.3509 12.7281 16.903C13.6016 17.6203 14.5664 18.2731 15.3525 19.0938C16.14 19.9159 16.7514 20.9072 17.4474 21.8354C17.473 21.7629 17.5334 21.6218 17.5751 21.4768C18.2416 19.1113 18.9121 16.7472 19.5625 14.3791C19.6687 13.9922 19.8689 13.7612 20.2573 13.69C20.8714 13.5772 21.2731 13.9989 21.1052 14.6061C20.5179 16.7324 19.92 18.8574 19.326 20.9811C18.9202 22.4305 18.5171 23.8785 18.1086 25.3265C17.9272 25.9699 17.61 26.2493 17.133 26.2036C16.5807 26.1499 16.2139 25.7268 16.1386 25.1263C15.7422 21.9536 13.9832 19.7695 11.1102 18.5149C9.13223 17.6512 7.21333 18.0663 5.51078 19.3061C3.51126 20.7622 2.15271 22.6427 1.96862 25.211C1.92696 25.7953 1.48889 26.162 0.924513 26.1351C0.392382 26.1096 2.65973e-06 25.716 2.65973e-06 25.1452C-0.0013411 23.6273 0.506602 22.2572 1.27927 20.9771C2.24946 19.3692 3.54351 18.0864 5.18828 17.1663C5.27428 17.1193 5.35625 17.0629 5.48659 16.9823ZM9.05295 16.1105C11.3011 16.1092 13.1178 14.2958 13.1071 12.0633C13.0977 9.82548 11.2769 8.02822 9.02876 8.03762C6.81155 8.04568 5.00553 9.851 5.00149 12.062C4.99612 14.3012 6.80752 16.1119 9.05295 16.1105Z" fill="#999999"/>
<path d="M20.3742 6.84192C18.9848 6.84192 17.5967 6.84326 16.2072 6.84058C15.5609 6.83923 15.1846 6.50879 15.1698 5.94463C15.1551 5.36167 15.5354 5.00974 16.214 5.00839C19.009 5.00436 21.8027 5.00436 24.5977 5.00839C25.2857 5.00974 25.67 5.34823 25.6646 5.92717C25.6606 6.50477 25.2696 6.83923 24.5896 6.84058C23.1854 6.84326 21.7798 6.84192 20.3742 6.84192Z" fill="#999999"/>
<path d="M22.591 11.307C21.9057 11.307 21.2217 11.3164 20.5364 11.3043C19.9451 11.2936 19.5823 10.9202 19.5984 10.3695C19.6132 9.83619 19.9693 9.48694 20.5377 9.48291C21.9406 9.4762 23.3435 9.47485 24.7464 9.48426C25.3 9.48829 25.6628 9.86439 25.6642 10.395C25.6655 10.9242 25.3094 11.2923 24.745 11.303C24.0275 11.3178 23.3099 11.307 22.591 11.307Z" fill="#999999"/>
</svg>
