<svg width="42" height="24" viewBox="0 0 42 24" fill="none" xmlns="http://www.w3.org/2000/svg">
<path d="M16.21 15.5638C16.1872 20.0861 12.5436 23.6927 8.03084 23.6592C3.55523 23.6269 -0.0238207 19.9784 0.000119402 15.474C0.0240595 10.9948 3.66775 7.39066 8.15174 7.41221C12.6297 7.43375 16.2327 11.0774 16.21 15.5638ZM14.5126 15.5949C14.5234 12.0279 11.6039 9.09879 8.05119 9.11076C4.51882 9.12273 1.62446 12.0291 1.61728 15.5698C1.61009 19.0986 4.51882 22.0097 8.05597 22.0145C11.6015 22.0181 14.5019 19.1345 14.5126 15.5949Z" fill="black"/>
<path d="M41.6917 15.523C41.6833 20.0477 38.054 23.6746 33.5497 23.6603C28.9986 23.6459 25.4723 20.0046 25.4866 15.3351C25.4998 11.0103 29.1818 7.41089 33.5915 7.41089C38.0696 7.41209 41.6989 11.0462 41.6917 15.523ZM33.5293 22.0144C37.0736 22.0204 39.9776 19.1392 39.9967 15.5996C40.0171 12.0445 37.0892 9.10585 33.5341 9.11064C30.0352 9.11543 27.105 12.0242 27.0942 15.5027C27.0846 19.0877 29.9706 22.0084 33.5293 22.0144Z" fill="black"/>
<path d="M16.8862 12.5892C17.0215 11.1899 17.1675 9.88515 17.2669 8.57682C17.3423 7.5845 17.3722 6.58739 17.3914 5.59148C17.3974 5.24674 17.4776 5.06121 17.839 4.94869C18.6482 4.69851 19.4694 4.49981 20.16 3.92405C20.597 3.56016 21.2421 3.56495 21.6755 3.93123C22.3793 4.52615 23.2447 4.66739 24.0443 4.99777C24.1999 5.0624 24.3891 5.27188 24.401 5.42749C24.583 7.67188 24.7386 9.91746 24.899 12.163C24.9074 12.2792 24.9002 12.3965 24.9002 12.5856C24.3268 12.4132 23.7882 12.2816 23.2759 12.0805C23.1071 12.0146 22.9886 11.7812 22.882 11.6028C22.0154 10.1461 19.9278 10.0479 19.0504 11.4831C18.7536 11.9691 18.4016 12.1822 17.9049 12.2995C17.5984 12.3725 17.2968 12.4719 16.8862 12.5892Z" fill="black"/>
<path d="M36.7471 7.26253C31.6623 5.96019 27.9851 7.64797 25.5168 12.2947C25.3552 10.51 25.0787 8.83181 25.0823 7.15241C25.0859 5.17495 26.2745 3.84986 28.015 3.06583C29.8045 2.25904 31.5497 2.43141 33.0496 3.73854C34.31 4.8362 35.4759 6.04278 36.7471 7.26253Z" fill="black"/>
<path d="M5.12817 7.20851C6.36468 6.02706 7.56648 4.80851 8.84488 3.67495C10.2741 2.40732 12.376 2.26846 14.1596 3.22248C15.9551 4.18248 16.9307 5.92053 16.7415 7.82617C16.5991 9.253 16.4519 10.6786 16.3034 12.1055C16.301 12.1342 16.2639 12.1581 16.2089 12.23C15.2572 10.0921 13.767 8.4941 11.6387 7.55085C9.52598 6.6136 7.36179 6.55614 5.12817 7.20851Z" fill="black"/>
<path d="M16.8217 4.74768C15.4224 2.9366 13.7106 1.97421 11.3274 1.98379C12.2216 1.21531 12.7841 0.238552 13.9704 0.0398486C15.3433 -0.189977 16.6756 0.778402 16.8073 2.20523C16.8851 3.04553 16.8217 3.9002 16.8217 4.74768Z" fill="black"/>
<path d="M30.3082 1.98247C28.1081 1.9693 26.3856 2.94247 24.9707 4.7691C25.0186 3.74087 24.9037 2.67074 25.1515 1.69279C25.5716 0.0313451 27.7011 -0.53843 29.0154 0.578377C29.4942 0.985359 29.876 1.50725 30.3082 1.98247Z" fill="black"/>
<path d="M20.8975 11.0833C21.8455 11.0785 22.5589 11.7943 22.5529 12.7447C22.5469 13.6616 21.8407 14.3679 20.9238 14.3727C19.9829 14.3786 19.2552 13.6497 19.2647 12.7112C19.2743 11.7931 19.9817 11.0881 20.8975 11.0833Z" fill="black"/>
<path d="M22.5493 14.4529C22.8043 13.8963 23.0473 13.366 23.3238 12.7627C23.7391 12.8848 24.2383 13.0033 24.7123 13.1876C24.8368 13.2367 24.9266 13.4809 24.9529 13.6485C24.9936 13.8975 24.9637 14.1572 24.9637 14.4529C24.1342 14.4529 23.3274 14.4529 22.5493 14.4529Z" fill="black"/>
<path d="M18.5215 12.8071C18.7705 13.3542 19.0111 13.8844 19.2636 14.4386C18.5263 14.4386 17.7327 14.4386 16.9319 14.4386C16.6601 13.2979 16.9893 12.9651 18.5215 12.8071Z" fill="black"/>
<path d="M8.23194 20.9492C7.91713 20.9073 7.58436 20.9132 7.29349 20.8055C7.11992 20.7421 7.01339 20.5003 6.87573 20.3375C7.05887 20.2286 7.23723 20.0394 7.42755 20.0263C7.91952 19.9928 8.43064 20.1196 8.90945 20.037C10.6954 19.7306 11.8768 18.6832 12.4586 16.9643C12.4909 16.8698 12.4825 16.7345 12.546 16.6854C12.6992 16.5669 12.8835 16.4185 13.0535 16.4197C13.1445 16.4209 13.3204 16.7153 13.3049 16.8614C13.2713 17.1714 13.1636 17.4814 13.0415 17.7735C12.2299 19.6983 10.3447 20.9288 8.23194 20.9492Z" fill="black"/>
<path d="M33.7366 20.9503C33.4026 20.906 33.0543 20.9024 32.7383 20.7982C32.5803 20.7468 32.4809 20.5121 32.3552 20.3601C32.5312 20.2428 32.7012 20.0369 32.8843 20.0238C33.3954 19.9879 33.9269 20.1159 34.4237 20.0286C36.2108 19.7137 37.3815 18.6508 37.944 16.9271C38.0398 16.6326 38.1009 16.2855 38.5054 16.3956C38.9507 16.5165 38.8155 16.878 38.7281 17.1857C38.1033 19.3965 36.0636 20.9227 33.7366 20.9503Z" fill="black"/>
</svg>
