<svg width="24" height="24" viewBox="0 0 24 24" fill="none" xmlns="http://www.w3.org/2000/svg">
<path d="M18.414 6.414L15.586 3.586C15.211 3.2109 14.7024 3.00011 14.172 3H7C6.46957 3 5.96086 3.21071 5.58579 3.58579C5.21071 3.96086 5 4.46957 5 5V19C5 19.5304 5.21071 20.0391 5.58579 20.4142C5.96086 20.7893 6.46957 21 7 21H17C17.5304 21 18.0391 20.7893 18.4142 20.4142C18.7893 20.0391 19 19.5304 19 19V7.828C18.9999 7.29761 18.7891 6.78899 18.414 6.414V6.414Z" stroke="#FFBF00" stroke-width="1.5" stroke-linecap="round" stroke-linejoin="round"/>
<path d="M11.0901 17L9.06006 14.97" stroke="#FFBF00" stroke-width="1.5" stroke-linecap="round" stroke-linejoin="round"/>
<path d="M13 15.0901L11.09 17.0001" stroke="#FFBF00" stroke-width="1.5" stroke-linecap="round" stroke-linejoin="round"/>
<path d="M11.09 17V11" stroke="#FFBF00" stroke-width="1.5" stroke-linecap="round" stroke-linejoin="round"/>
<path d="M19 8H15C14.7348 8 14.4804 7.89464 14.2929 7.70711C14.1054 7.51957 14 7.26522 14 7V3" stroke="#FFBF00" stroke-width="1.5" stroke-linecap="round" stroke-linejoin="round"/>
</svg>
