<svg width="19" height="15" viewBox="0 0 19 15" fill="none" xmlns="http://www.w3.org/2000/svg">
<path d="M0 7.40237C0 7.64647 0.10743 7.87107 0.30274 8.05667L6.78711 14.541C6.99219 14.7266 7.19727 14.8047 7.42188 14.8047C7.91017 14.8047 8.28127 14.4532 8.28127 13.9649C8.28127 13.7403 8.19337 13.5059 8.03707 13.3496L5.85938 11.1231L2.5586 8.12497L4.93165 8.28127H17.2754C17.7832 8.28127 18.1348 7.91017 18.1348 7.40237C18.1348 6.89457 17.7832 6.53317 17.2754 6.53317H4.93165L2.56836 6.67967L5.85938 3.68164L8.03707 1.46485C8.20317 1.29883 8.28127 1.07422 8.28127 0.83985C8.28127 0.36133 7.91017 0 7.42188 0C7.19727 0 6.98243 0.0878902 6.76758 0.29297L0.30274 6.74807C0.10743 6.94337 0 7.16797 0 7.40237Z" fill="#00B345"/>
</svg>
