<svg width="18" height="18" viewBox="0 0 18 18" fill="none" xmlns="http://www.w3.org/2000/svg">
<path fill-rule="evenodd" clip-rule="evenodd" d="M9 1.8C5.02355 1.8 1.8 5.02355 1.8 9C1.8 12.9764 5.02355 16.2 9 16.2C12.9764 16.2 16.2 12.9764 16.2 9C16.2 5.02355 12.9764 1.8 9 1.8ZM0 9C0 4.02944 4.02944 0 9 0C13.9706 0 18 4.02944 18 9C18 13.9706 13.9706 18 9 18C4.02944 18 0 13.9706 0 9ZM8.1 6.67279L6.0364 8.7364C5.68492 9.08787 5.11508 9.08787 4.7636 8.7364C4.41213 8.38492 4.41213 7.81507 4.7636 7.4636L8.3636 3.8636C8.71508 3.51213 9.28492 3.51213 9.6364 3.8636L13.2364 7.4636C13.5879 7.81508 13.5879 8.38492 13.2364 8.7364C12.8849 9.08787 12.3151 9.08787 11.9636 8.7364L9.9 6.67279V13.5C9.9 13.9971 9.49706 14.4 9 14.4C8.50294 14.4 8.1 13.9971 8.1 13.5V6.67279Z" fill="#2EAEE4"/>
</svg>
