<svg width="14" height="18" viewBox="0 0 14 18" fill="none" xmlns="http://www.w3.org/2000/svg">
<path d="M0.274414 14.8897C0.274414 14.8087 0.301607 14.7299 0.350333 14.6651C0.394751 14.6061 0.439467 14.5475 0.488807 14.4962C1.25329 13.7023 2.01883 12.9098 2.78753 12.1225C2.85478 12.0534 2.85926 11.9799 2.85926 11.8876C2.85873 9.42663 2.85873 6.96569 2.85873 4.50441C2.85873 3.70678 3.21658 3.24283 3.83181 3.24283C5.96282 3.24283 8.09409 3.24249 10.2251 3.24283C10.8327 3.24283 11.1918 3.70814 11.1918 4.49552C11.1921 6.58072 11.1918 8.66558 11.1918 10.7508C11.1918 10.7813 11.1918 10.8117 11.1918 10.8452C11.1918 10.8916 11.2501 10.9202 11.281 10.8855C11.5009 10.6404 11.7193 10.3928 11.9397 10.1487C12.6082 9.40817 13.5462 9.8034 13.7535 10.9115C13.7613 10.952 13.7762 10.9908 13.7762 11.0321C13.7762 11.1106 13.7762 11.189 13.7762 11.2675C13.7762 11.3423 13.7719 11.4173 13.7566 11.4906C13.6713 11.9005 13.4615 12.1986 13.215 12.478C12.5932 13.1823 11.9806 13.901 11.3691 14.6207C10.3791 15.7851 9.21985 16.3746 7.88207 16.3722C6.78373 16.3701 5.6854 16.3735 4.58706 16.3688C4.49055 16.3684 4.42541 16.4071 4.35869 16.4939C4.05645 16.888 3.74953 17.2761 3.44388 17.6658C3.40759 17.712 3.35206 17.7391 3.29326 17.7391C3.25106 17.7391 3.20935 17.7257 3.17821 17.6973C2.98775 17.5232 2.98433 17.3224 3.16753 17.0826C3.4737 16.6819 3.78381 16.2864 4.08576 15.8802C4.18808 15.7428 4.29751 15.6836 4.44572 15.6843C5.63661 15.6898 6.82751 15.699 8.01814 15.6826C9.07007 15.6682 10.0128 15.2217 10.8118 14.3345C11.5726 13.49 12.3081 12.6073 13.0544 11.7406C13.1707 11.6055 13.2403 11.4363 13.2466 11.2332C13.2564 10.919 13.152 10.6817 12.9376 10.5344C12.7264 10.3894 12.488 10.4369 12.2899 10.6588C11.565 11.4708 10.8403 12.2825 10.1172 13.0968C9.56056 13.7235 8.91633 14.0456 8.17821 14.0463C7.62443 14.0466 7.07091 14.0463 6.51713 14.0463C6.30616 14.0463 6.0952 14.0487 5.8845 14.0442C5.76794 14.0418 5.66694 13.9666 5.64769 13.8213C5.63318 13.7119 5.65244 13.5642 5.7028 13.4805C5.74658 13.4073 5.85496 13.369 5.93539 13.3676C6.49788 13.3584 7.06036 13.3666 7.62285 13.3591C7.72517 13.3577 7.83513 13.3307 7.92743 13.276C8.16766 13.1331 8.2895 12.7827 8.23385 12.4476C8.17716 12.106 7.94351 11.8609 7.66003 11.8599C6.75051 11.8571 5.84072 11.8599 4.9312 11.8582C4.22816 11.8571 3.60529 12.1443 3.05678 12.7132C2.29519 13.5034 1.53176 14.2901 0.768599 15.0774C0.573928 15.2777 0.437884 15.2682 0.310777 15.0411C0.285049 14.9951 0.274414 14.9424 0.274414 14.8897ZM3.38604 11.4708C3.38621 11.5402 3.46099 11.5847 3.52116 11.5501C3.90275 11.3317 4.30279 11.1901 4.71839 11.184C5.72021 11.1686 6.72203 11.1665 7.72385 11.1816C8.28844 11.1901 8.75916 11.8165 8.76469 12.5495C8.7674 12.9113 9.06501 13.1874 9.35528 12.9713C9.46031 12.8931 9.5613 12.8026 9.65734 12.6992C9.97511 12.3573 10.2865 12.0055 10.5951 11.6496C10.636 11.6024 10.6615 11.5053 10.6615 11.4311C10.665 9.11244 10.6644 6.79372 10.6642 4.47501C10.6642 4.10132 10.5323 3.9273 10.2488 3.92661C9.7172 3.92559 9.18557 3.92627 8.65367 3.92627C8.58173 3.92627 8.5234 3.98461 8.5234 4.05656C8.52332 4.8124 8.52268 5.5451 8.52393 6.27781C8.52419 6.45046 8.48912 6.59406 8.35621 6.66654C8.2212 6.74039 8.11888 6.66414 8.02764 6.54038C8.02464 6.53632 8.02165 6.53226 8.01866 6.5282C7.83129 6.2741 7.45518 6.27857 7.26263 6.52876C7.08884 6.75475 6.962 6.75509 6.79006 6.53252C6.78771 6.52948 6.78536 6.52644 6.78301 6.52341C6.59241 6.27688 6.21913 6.27359 6.03455 6.52465C5.94146 6.65149 5.84019 6.74381 5.69779 6.66859C5.55117 6.59166 5.52533 6.432 5.52586 6.24909C5.52797 5.53693 5.52665 4.82476 5.52665 4.1126C5.52665 4.00969 5.44321 3.92627 5.3403 3.92627C4.82744 3.92627 4.32976 3.92627 3.83207 3.92627C3.51035 3.92627 3.38588 4.0873 3.38588 4.50304C3.38588 6.81047 3.38588 9.11756 3.38588 11.425C3.38595 11.4401 3.386 11.4552 3.38604 11.4708ZM7.9894 4.35056C7.9894 4.12171 7.80387 3.93619 7.57502 3.93619C7.22355 3.93619 6.87333 3.93619 6.52234 3.93619C6.26881 3.93619 6.06329 4.14171 6.06329 4.39523C6.06329 4.73185 6.06329 5.06867 6.06329 5.41349C6.06329 5.44619 6.10835 5.46714 6.12526 5.43914C6.29772 5.15332 6.48522 5.12563 6.70278 5.44769C6.85556 5.67361 7.19126 5.65952 7.35677 5.44275C7.38501 5.40576 7.41332 5.36925 7.44194 5.33316C7.56879 5.17281 7.70802 5.17589 7.83909 5.32906C7.89074 5.38952 7.98959 5.35463 7.98956 5.2751C7.98945 4.95912 7.98942 4.65424 7.9894 4.35056Z" fill="white"/>
<path d="M7.02495 0.234131C7.07658 0.234131 7.12864 0.248477 7.16466 0.285457C7.2607 0.38406 7.29535 0.520213 7.29179 0.697395C7.28256 1.14596 7.28968 1.59486 7.28863 2.04377C7.2881 2.29984 7.1813 2.46053 7.01859 2.45506C6.86037 2.44959 6.76227 2.29437 6.76174 2.04377C6.76095 1.59486 6.76807 1.14596 6.75858 0.697395C6.7548 0.519983 6.78931 0.383462 6.88589 0.284959C6.92183 0.248301 6.97362 0.234131 7.02495 0.234131Z" fill="white"/>
<path d="M2.81365 2.70716C2.89464 2.81524 2.90135 2.9709 2.85072 3.09611C2.78087 3.2688 2.62791 3.33409 2.49826 3.23675C2.46477 3.21145 2.43471 3.17589 2.40702 3.13999C2.08398 2.72254 1.75883 2.30783 1.44185 1.88251C1.38595 1.80764 1.3303 1.68216 1.33874 1.59019C1.3485 1.48489 1.41522 1.36454 1.48431 1.29856C1.57766 1.20933 1.69053 1.25001 1.77254 1.35497C2.12221 1.80251 2.47004 2.2521 2.81365 2.70716Z" fill="white"/>
<path d="M11.6028 3.18624C11.5132 3.29972 11.3092 3.25298 11.2245 3.13582C11.2115 3.11789 11.1997 3.09907 11.1896 3.07888C11.1294 2.9599 11.154 2.82349 11.2283 2.71716C11.3106 2.59921 11.3997 2.48912 11.4865 2.37664C11.7407 2.04671 11.9933 1.71507 12.2499 1.38823C12.3981 1.1995 12.5948 1.22001 12.6856 1.42857C12.7491 1.5749 12.7351 1.71952 12.646 1.83679C12.3011 2.29014 11.954 2.74075 11.6028 3.18624Z" fill="white"/>
<path d="M1.39062 8.98665C1.20207 8.98665 1.01379 8.98939 0.825239 8.98597C0.655412 8.98289 0.540173 8.84374 0.53859 8.64818C0.537008 8.45262 0.652511 8.30595 0.820228 8.30424C1.20155 8.30082 1.5826 8.30116 1.96392 8.30389C2.13348 8.30526 2.24925 8.44612 2.25083 8.64134C2.25242 8.83656 2.13665 8.98187 1.9692 8.98563C1.77643 8.98973 1.58366 8.98631 1.39062 8.98665Z" fill="white"/>
<path d="M12.642 8.98669C12.4579 8.98669 12.2738 8.98908 12.0898 8.986C11.9139 8.98293 11.7952 8.83728 11.7994 8.6359C11.8034 8.44103 11.9189 8.30529 12.0906 8.30393C12.4674 8.30153 12.8442 8.30119 13.2211 8.30393C13.3925 8.30495 13.508 8.44171 13.5117 8.63659C13.5154 8.83762 13.3964 8.98327 13.2205 8.986C13.0275 8.98908 12.8347 8.98669 12.642 8.98669Z" fill="white"/>
<path d="M4.8379 13.3641C4.97767 13.3686 5.09554 13.5238 5.09581 13.7036C5.09633 13.8899 4.97028 14.0496 4.82604 14.0452C4.67915 14.0407 4.56497 13.8807 4.5713 13.6882C4.57736 13.5046 4.69656 13.3597 4.8379 13.3641Z" fill="white"/>
<path d="M8.48511 9.46236C8.90229 9.46236 9.31948 9.46168 9.73666 9.4627C9.93998 9.46304 10.06 9.59365 10.0565 9.80767C10.0534 10.0125 9.93233 10.1455 9.74035 10.1455C8.9015 10.1468 8.06292 10.1455 7.22407 10.1465C7.10013 10.1465 6.98278 10.1014 6.94902 9.94204C6.92635 9.83605 6.93584 9.6822 6.98278 9.59843C7.02655 9.5198 7.13784 9.47091 7.22038 9.46851C7.64204 9.45586 8.06371 9.46236 8.48511 9.46236Z" fill="white"/>
<path d="M8.73943 8.09485C9.07751 8.09485 9.41531 8.09383 9.75338 8.09519C9.93798 8.09588 10.0537 8.22477 10.0566 8.42717C10.0598 8.63265 9.93745 8.77693 9.75048 8.77761C9.07012 8.77966 8.38976 8.77966 7.70966 8.77761C7.52269 8.77693 7.40139 8.6306 7.4064 8.42375C7.41115 8.2234 7.5285 8.09554 7.71256 8.09485C8.05485 8.09417 8.39714 8.09485 8.73943 8.09485Z" fill="white"/>
<path d="M6.12564 10.144C5.98508 10.1447 5.86615 9.99117 5.86404 9.80689C5.86193 9.61919 5.97348 9.46876 6.11826 9.46397C6.26672 9.45919 6.39093 9.61577 6.38882 9.80587C6.38697 9.98673 6.26514 10.1433 6.12564 10.144Z" fill="white"/>
</svg>
