<svg width="9" height="11" viewBox="0 0 9 11" fill="none" xmlns="http://www.w3.org/2000/svg">
<path fill-rule="evenodd" clip-rule="evenodd" d="M4.5 1.10001C2.63604 1.10001 1.125 2.57748 1.125 4.40004C1.125 4.96537 1.32972 5.59728 1.6771 6.25235C2.02194 6.90264 2.48827 7.54011 2.96546 8.10668C3.44128 8.67162 3.91866 9.15522 4.27769 9.49792C4.35842 9.57497 4.43298 9.64473 4.5 9.70652C4.56702 9.64473 4.64158 9.57497 4.72231 9.49792C5.08134 9.15522 5.55872 8.67162 6.03454 8.10668C6.51173 7.54011 6.97806 6.90264 7.3229 6.25235C7.67028 5.59728 7.875 4.96537 7.875 4.40004C7.875 2.57748 6.36396 1.10001 4.5 1.10001ZM4.5 10.4501C4.13393 10.8677 4.13383 10.8676 4.13371 10.8675L4.13252 10.8665L4.12969 10.8641L4.11982 10.8558C4.11141 10.8486 4.09938 10.8383 4.08395 10.8251C4.0531 10.7985 4.00869 10.7598 3.95264 10.7101C3.84059 10.6106 3.68181 10.4664 3.49184 10.2851C3.11259 9.92306 2.6056 9.40978 2.09704 8.80596C1.58985 8.20377 1.0718 7.50061 0.678372 6.7587C0.287469 6.02156 0 5.20971 0 4.40004C0 1.96996 2.01472 0 4.5 0C6.98528 0 9 1.96996 9 4.40004C9 5.20971 8.71253 6.02156 8.32163 6.7587C7.92819 7.50061 7.41015 8.20377 6.90296 8.80596C6.3944 9.40978 5.88741 9.92306 5.50816 10.2851C5.31819 10.4664 5.15941 10.6106 5.04736 10.7101C4.99131 10.7598 4.9469 10.7985 4.91605 10.8251C4.90062 10.8383 4.88859 10.8486 4.88018 10.8558L4.87031 10.8641L4.86748 10.8665L4.86659 10.8672C4.86648 10.8673 4.86607 10.8677 4.5 10.4501ZM4.5 10.4501L4.13371 10.8675C4.34436 11.044 4.65542 11.0442 4.86607 10.8677L4.5 10.4501ZM4.5 3.30003C3.87868 3.30003 3.375 3.79252 3.375 4.40004C3.375 5.00755 3.87868 5.50004 4.5 5.50004C5.12132 5.50004 5.625 5.00755 5.625 4.40004C5.625 3.79252 5.12132 3.30003 4.5 3.30003ZM2.25 4.40004C2.25 3.185 3.25736 2.20002 4.5 2.20002C5.74264 2.20002 6.75 3.185 6.75 4.40004C6.75 5.61507 5.74264 6.60005 4.5 6.60005C3.25736 6.60005 2.25 5.61507 2.25 4.40004Z" fill="#4E4B66"/>
</svg>
