<svg width="17" height="22" viewBox="0 0 17 22" fill="none" xmlns="http://www.w3.org/2000/svg">
<path d="M1 9.88889V8.88889C0.447715 8.88889 0 9.3366 0 9.88889H1ZM16 9.88889H17C17 9.3366 16.5523 8.88889 16 8.88889V9.88889ZM16 21V22C16.5523 22 17 21.5523 17 21H16ZM1 21H0C0 21.5523 0.447715 22 1 22L1 21ZM1 10.8889H16V8.88889H1V10.8889ZM15 9.88889V21H17V9.88889H15ZM16 20H1V22H16V20ZM2 21V9.88889H0V21H2ZM5.21429 5.44444C5.21429 3.50754 6.71932 2 8.5 2V0C5.54681 0 3.21429 2.47215 3.21429 5.44444H5.21429ZM8.5 2C10.2807 2 11.7857 3.50754 11.7857 5.44444H13.7857C13.7857 2.47215 11.4532 0 8.5 0V2ZM3.21429 5.44444V9.88889H5.21429V5.44444H3.21429ZM11.7857 5.44444V9.88889H13.7857V5.44444H11.7857Z" fill="#777777"/>
<circle cx="8" cy="15" r="2" fill="#777777"/>
</svg>
