<svg width="22" height="22" viewBox="0 0 22 22" fill="none" xmlns="http://www.w3.org/2000/svg">
<path d="M18.7782 3.2218C16.7005 1.14421 13.9382 0 11 0C8.0618 0 5.29947 1.14421 3.2218 3.2218C1.14421 5.29947 0 8.0618 0 11C0 13.9382 1.14421 16.7005 3.2218 18.7782C5.29947 20.8558 8.0618 22 11 22C13.9382 22 16.7005 20.8558 18.7782 18.7782C20.8558 16.7005 22 13.9382 22 11C22 8.0618 20.8558 5.29947 18.7782 3.2218ZM19.0911 4.53621C20.4917 6.28255 21.2813 8.41788 21.35 10.6777H19.5889V8.61111C19.5889 7.85138 18.9708 7.23332 18.2111 7.23332H16.4855C16.3735 6.64671 16.2364 6.08029 16.0739 5.53992C17.1013 5.2843 18.1084 4.9494 19.0911 4.53621ZM11.3224 0.6655C12.4987 0.814043 13.6191 1.77207 14.5069 3.40192C14.5921 3.5582 14.7877 3.61586 14.9441 3.53074C15.1004 3.44562 15.1581 3.2499 15.073 3.09358C14.5671 2.16494 13.9832 1.43077 13.3483 0.91098C15.2171 1.34221 16.9326 2.28774 18.3224 3.67757C18.4348 3.78993 18.5439 3.90466 18.6504 4.02114C17.7447 4.39106 16.8181 4.69296 15.8736 4.92559C15.8168 4.76257 15.7584 4.60118 15.6969 4.44361C15.6321 4.27784 15.4452 4.1959 15.2794 4.26074C15.1137 4.32549 15.0318 4.51241 15.0966 4.67818C15.1468 4.8067 15.1949 4.93775 15.2419 5.07018C13.9631 5.34149 12.6538 5.48818 11.3224 5.50834V0.6655ZM11.3223 6.15304C12.723 6.13246 14.1001 5.97627 15.4445 5.68623C15.5946 6.18032 15.7235 6.69707 15.8298 7.23332H11.3223V6.15304ZM10.6777 0.66507V5.50829C9.34695 5.48771 8.03842 5.34076 6.76032 5.06924C7.10497 4.09836 7.53289 3.23898 8.02308 2.5477C8.8165 1.42871 9.72834 0.78418 10.6777 0.66507ZM10.6777 6.15291V7.23332H6.17018C6.2767 6.69775 6.40677 6.17968 6.55746 5.68519C7.90118 5.97541 9.27764 6.1319 10.6777 6.15291ZM3.67761 3.67761C5.06687 2.2883 6.78154 1.34295 8.64961 0.911496C8.24373 1.2448 7.85757 1.6668 7.49736 2.17482C6.95337 2.94198 6.49116 3.87063 6.12455 4.92345C5.18143 4.69064 4.25605 4.38887 3.35156 4.01912C3.45748 3.90332 3.56593 3.78928 3.67761 3.67761ZM2.91062 4.53402C3.89267 4.94725 4.89904 5.28223 5.92561 5.53807C5.76409 6.07643 5.6262 6.64293 5.51362 7.23332H3.78894C3.02921 7.23332 2.41111 7.85138 2.41111 8.61111V10.6777H0.649988C0.718652 8.41693 1.50889 6.28079 2.91062 4.53402ZM2.90967 17.4649C1.50859 15.7184 0.718652 13.5826 0.649988 11.3223H2.41106V13.3889C2.41106 14.1486 3.02917 14.7667 3.7889 14.7667H5.51444C5.62654 15.3536 5.76361 15.9203 5.92621 16.4609C4.89908 16.7167 3.89224 17.0516 2.90967 17.4649ZM10.6777 21.3345C9.5022 21.186 8.38234 20.2291 7.49482 18.6012C7.40966 18.4449 7.21389 18.3873 7.05762 18.4725C6.90134 18.5577 6.84372 18.7535 6.92893 18.9097C7.43437 19.8368 8.01767 20.5699 8.65184 21.0891C6.78292 20.6578 5.06743 19.7123 3.67757 18.3224C3.56555 18.2104 3.45679 18.096 3.35057 17.9799C4.25605 17.6099 5.18246 17.308 6.12661 17.0752C6.18204 17.2341 6.23889 17.3915 6.29879 17.5452C6.34846 17.6726 6.47019 17.7505 6.59914 17.7505C6.63807 17.7505 6.67764 17.7434 6.7161 17.7284C6.88192 17.6638 6.96399 17.4769 6.89936 17.3111C6.85068 17.1863 6.80397 17.059 6.75834 16.9305C8.03709 16.6589 9.34626 16.512 10.6777 16.4917V21.3345ZM10.6777 15.847C9.27704 15.8678 7.90006 16.0242 6.55579 16.3144C6.40557 15.8201 6.27653 15.3031 6.17018 14.7667H10.6777V15.847ZM3.78894 14.1222C3.38461 14.1222 3.05564 13.7932 3.05564 13.3889V8.61111C3.05564 8.20677 3.38461 7.87785 3.78894 7.87785H18.2111C18.6154 7.87785 18.9444 8.20677 18.9444 8.61111V13.3889H18.9444C18.9444 13.7932 18.6154 14.1222 18.2111 14.1222H3.78894ZM15.8299 14.7667C15.7234 15.302 15.5934 15.8198 15.4428 16.3141C14.0989 16.0241 12.7224 15.8678 11.3223 15.847V14.7667H15.8299ZM11.3223 21.3349V16.4917C12.6531 16.512 13.9617 16.6588 15.2399 16.9301C14.8952 17.9013 14.4672 18.7609 13.9769 19.4523C13.1835 20.5713 12.2717 21.2158 11.3223 21.3349ZM18.3224 18.3224C16.9331 19.7117 15.2185 20.6571 13.3504 21.0885C13.7563 20.7552 14.1424 20.3332 14.5027 19.8251C15.0468 19.0578 15.5091 18.1289 15.8757 17.0757C16.8191 17.3085 17.7447 17.6102 18.6494 17.9798C18.5432 18.096 18.4345 18.2104 18.3224 18.3224ZM19.0902 17.4649C18.108 17.0518 17.1014 16.7169 16.0746 16.4611C16.236 15.923 16.3738 15.3568 16.4864 14.7667H18.2111C18.9708 14.7667 19.5889 14.1486 19.5889 13.3889V11.3223H21.35C21.2813 13.5826 20.4914 15.7184 19.0902 17.4649Z" fill="white"/>
<path d="M10.1604 12.0553H8.41602V11.3221H9.90209C10.0801 11.3221 10.2244 11.1778 10.2244 10.9998C10.2244 10.8218 10.0801 10.6776 9.90209 10.6776H8.41602V9.94434H10.1604C10.3384 9.94434 10.4827 9.80005 10.4827 9.62207C10.4827 9.44409 10.3384 9.2998 10.1604 9.2998H8.09375C7.91577 9.2998 7.77148 9.44409 7.77148 9.62207V12.3776C7.77148 12.5556 7.91577 12.6999 8.09375 12.6999H10.1604C10.3384 12.6999 10.4827 12.5556 10.4827 12.3776C10.4827 12.1996 10.3384 12.0553 10.1604 12.0553Z" fill="white"/>
<path d="M6.80214 9.29981C6.62416 9.29981 6.47988 9.4441 6.47988 9.62207V11.4108L4.99329 9.42871C4.91006 9.31773 4.76508 9.27252 4.63355 9.31635C4.50198 9.36022 4.41321 9.48337 4.41321 9.62207V12.3776C4.41321 12.5556 4.5575 12.6999 4.73547 12.6999C4.91345 12.6999 5.05774 12.5556 5.05774 12.3776V10.5889L6.54433 12.571C6.60638 12.6537 6.70267 12.6999 6.80218 12.6999C6.83617 12.6999 6.87055 12.6945 6.90406 12.6833C7.03563 12.6395 7.12441 12.5163 7.12441 12.3776V9.62207C7.12441 9.44405 6.98012 9.29981 6.80214 9.29981Z" fill="white"/>
<path d="M14.4563 9.31195C14.285 9.26378 14.107 9.36355 14.0588 9.53491L13.5941 11.1874L13.1293 9.53491C13.0902 9.39591 12.9634 9.29987 12.8191 9.29987C12.6747 9.29987 12.5479 9.39591 12.5088 9.53491L12.0441 11.1874L11.5793 9.53491C11.5312 9.36355 11.3533 9.2637 11.1819 9.31195C11.0106 9.36012 10.9107 9.53809 10.9589 9.70941L11.7339 12.465C11.773 12.604 11.8997 12.7 12.0441 12.7C12.1885 12.7 12.3153 12.604 12.3544 12.465L12.8191 10.8125L13.2839 12.465C13.323 12.604 13.4498 12.7 13.5941 12.7C13.7385 12.7 13.8653 12.604 13.9044 12.465L14.6794 9.70941C14.7275 9.53809 14.6277 9.36012 14.4563 9.31195Z" fill="white"/>
<path d="M16.5328 10.6893C15.8659 10.5041 15.7355 10.3787 15.7355 10.2248C15.7355 10.1392 16.0041 9.94434 16.4465 9.94434C16.8889 9.94434 17.1576 10.1392 17.1576 10.2248C17.1576 10.4028 17.3019 10.5471 17.4798 10.5471C17.6578 10.5471 17.8021 10.4028 17.8021 10.2248C17.8021 9.69748 17.2193 9.2998 16.4465 9.2998C15.6737 9.2998 15.0909 9.69748 15.0909 10.2248C15.0909 10.9578 15.8548 11.1699 16.3603 11.3104C17.0272 11.4956 17.1576 11.6209 17.1576 11.7748C17.1576 11.8605 16.889 12.0553 16.4466 12.0553C16.0042 12.0553 15.7355 11.8605 15.7355 11.7748C15.7355 11.5969 15.5912 11.4526 15.4133 11.4526C15.2353 11.4526 15.091 11.5969 15.091 11.7748C15.091 12.3022 15.6738 12.6999 16.4466 12.6999C17.2194 12.6999 17.8021 12.3022 17.8021 11.7748C17.8021 11.0419 17.0383 10.8297 16.5328 10.6893Z" fill="white"/>
</svg>
