<svg width="35" height="28" viewBox="0 0 35 28" fill="none" xmlns="http://www.w3.org/2000/svg">
<path d="M19.1626 0.00640891C17.9129 0.00640891 16.6632 0.00640891 15.4134 0.00640891C15.2244 0.00640891 15.0353 0.00640891 14.8462 0.00640891C10.0812 0.00640891 5.31619 0.00640891 0.547962 0.00640891C0.253152 0.00640891 0 0.281992 0 0.608846C0 8.17777 0 15.7435 0 23.3124C0 23.6361 0.253152 23.9148 0.547962 23.9148C5.13033 23.9148 9.7127 23.9148 14.2983 23.9148C14.2983 25.0684 14.2983 26.2188 14.2983 27.3724C14.2983 27.789 14.7789 28.1736 15.125 27.8916C15.5128 27.5775 15.9005 27.2603 16.2882 26.9431C16.5734 26.7123 16.8586 26.4784 17.1438 26.2445C17.2175 26.1868 17.3233 26.1195 17.413 26.0554C17.4675 26.0939 17.522 26.1323 17.5604 26.1708C17.8104 26.4207 18.1148 26.6258 18.384 26.8469C18.8069 27.193 19.2267 27.5391 19.6497 27.8852C19.8836 28.0774 20.1176 28.0069 20.2682 27.8307C20.3899 27.7346 20.4765 27.5839 20.4765 27.366C20.4765 26.2124 20.4765 25.062 20.4765 23.9084C24.9915 23.9084 29.5098 23.9084 34.0281 23.9084C34.1883 23.9084 34.3101 23.8443 34.3998 23.7482C34.4062 23.7418 34.4126 23.7354 34.419 23.729C34.4223 23.7258 34.4255 23.7226 34.4287 23.7162C34.5184 23.62 34.5761 23.4854 34.5761 23.306C34.5761 15.7371 34.5761 8.17136 34.5761 0.602437C34.5761 0.278788 34.3261 0 34.0281 0C29.3272 0 24.6294 0 19.9285 0C19.6721 0.00640891 19.419 0.00640891 19.1626 0.00640891ZM14.2983 22.71C9.89856 22.71 5.49884 22.71 1.09913 22.71C1.09913 15.5416 1.09913 8.37644 1.09913 1.20808C5.49884 1.20808 9.89856 1.20808 14.2983 1.20808C14.2983 8.37644 14.2983 15.5416 14.2983 22.71ZM19.3805 26.1708C18.8101 25.7029 18.243 25.2383 17.6726 24.7704C17.5316 24.6551 17.2592 24.6551 17.1182 24.7704C16.5446 25.2383 15.9678 25.7061 15.3942 26.174C15.3942 17.852 15.3942 9.52684 15.3942 1.20487C15.4006 1.20487 15.407 1.20487 15.4134 1.20487C16.6632 1.20487 17.9129 1.20487 19.1626 1.20487C19.2363 1.20487 19.3068 1.20487 19.3805 1.20487C19.3805 9.53005 19.3805 17.852 19.3805 26.1708ZM20.4765 1.20808C24.8089 1.20808 29.1445 1.20808 33.4769 1.20808C33.4769 8.37644 33.4769 15.5416 33.4769 22.71C29.1445 22.71 24.8089 22.71 20.4765 22.71C20.4765 15.5416 20.4765 8.37644 20.4765 1.20808Z" fill="#999999"/>
</svg>
