<svg width="20" height="20" viewBox="0 0 20 20" fill="none" xmlns="http://www.w3.org/2000/svg">
<path d="M2.32355 15.1734C5.73735 11.7631 9.1466 8.35792 12.5477 4.96045C13.3782 5.79182 14.2224 6.63686 15.0503 7.46596C11.6506 10.863 8.23768 14.2727 4.83299 17.6743C4.00516 16.8489 3.15866 16.0056 2.32355 15.1734Z" fill="white"/>
<path d="M16.1428 7.44154C14.9505 6.25211 13.7623 5.06632 12.5796 3.88645C13.0844 3.3858 13.5873 2.88652 14.0835 2.39453C15.2571 3.56757 16.4394 4.74971 17.6413 5.95053C17.808 5.78882 17.9474 5.65488 18.085 5.52004C18.2039 5.40342 18.3165 5.27951 18.4408 5.16927C18.614 5.01621 18.8245 5.02486 18.968 5.17884C19.1019 5.32233 19.0937 5.52596 18.9411 5.68768C18.8163 5.81979 18.686 5.94689 18.5575 6.07535C16.4936 8.13625 14.4297 10.1971 12.3659 12.258C12.339 12.2849 12.3135 12.3127 12.2852 12.3378C12.1299 12.474 11.9326 12.4813 11.7918 12.3564C11.6406 12.2221 11.616 12.0125 11.7631 11.8503C11.9918 11.598 12.2374 11.3611 12.4784 11.1201C13.6566 9.94113 14.8357 8.76354 16.0139 7.58504C16.0508 7.54768 16.084 7.50668 16.1428 7.44154Z" fill="white"/>
<path d="M15.1974 2.3583C15.8111 1.71962 16.4111 1.03356 17.0781 0.419941C17.6007 -0.0606618 18.2631 -0.109405 18.9087 0.175312C19.5794 0.470962 19.9498 1.01124 19.9962 1.74923C20.0277 2.24896 19.87 2.69677 19.5206 3.05437C18.9183 3.67164 18.2987 4.27205 17.7023 4.86381C16.8571 4.01831 16.0097 3.17099 15.1974 2.3583Z" fill="white"/>
<path d="M4.28036 18.2596C2.88349 18.8341 1.46612 19.4167 0.0487491 19.9998C0.0323476 19.9875 0.0164016 19.9757 0 19.9634C0.584534 18.5448 1.16861 17.1262 1.75224 15.7095C2.59601 16.5609 3.43066 17.4023 4.28036 18.2596Z" fill="white"/>
</svg>
