<svg width="20" height="21" viewBox="0 0 20 21" fill="none" xmlns="http://www.w3.org/2000/svg">
<path d="M19.3842 18.836L14.5313 13.7158C15.7352 12.2599 16.4136 10.4308 16.4543 8.53078C16.4951 6.63073 15.8958 4.77344 14.7554 3.26579C13.6151 1.75815 12.0019 0.690397 10.1826 0.238965C8.36324 -0.212467 6.44655 -0.0205582 4.74924 0.782981C3.05193 1.58652 1.67558 2.9536 0.847625 4.65832C0.019667 6.36303 -0.210347 8.30337 0.195591 10.1587C0.601529 12.014 1.61912 13.6733 3.08023 14.8623C4.54133 16.0514 6.3585 16.699 8.23145 16.6982C9.91962 16.7026 11.5674 16.1745 12.9468 15.187L17.8363 20.3458C17.933 20.4531 18.0498 20.5398 18.18 20.6005C18.3102 20.6613 18.451 20.6951 18.5943 20.6998C18.7375 20.7045 18.8802 20.6801 19.014 20.628C19.1477 20.5758 19.2699 20.4971 19.3732 20.3963C19.4765 20.2955 19.5589 20.1748 19.6155 20.0412C19.6721 19.9076 19.7018 19.7639 19.7029 19.6185C19.7039 19.4731 19.6762 19.3289 19.6215 19.1946C19.5668 19.0602 19.4861 18.9383 19.3842 18.836ZM8.23145 2.17339C9.43462 2.17339 10.6108 2.53542 11.6112 3.21369C12.6116 3.89196 13.3913 4.85602 13.8517 5.98394C14.3121 7.11187 14.4326 8.353 14.1979 9.5504C13.9631 10.7478 13.3838 11.8477 12.533 12.711C11.6822 13.5742 10.5983 14.1621 9.41824 14.4003C8.2382 14.6385 7.01505 14.5163 5.90347 14.0491C4.79189 13.5818 3.8418 12.7907 3.17336 11.7756C2.50492 10.7605 2.14814 9.56701 2.14814 8.34616C2.15007 6.70964 2.79161 5.14071 3.93204 3.98352C5.07246 2.82633 6.61865 2.17535 8.23145 2.17339Z" fill="#00B14F"/>
</svg>
