<svg width="11" height="11" viewBox="0 0 11 11" fill="none" xmlns="http://www.w3.org/2000/svg">
<rect width="11" height="11" fill="#555555"/>
<path fill-rule="evenodd" clip-rule="evenodd" d="M9.96875 1.375H8.9375V0.6875H8.25V1.375H2.75V0.6875H2.0625V1.375H1.03125L0.6875 1.71875V9.96875L1.03125 10.3125H9.96875L10.3125 9.96875V1.71875L9.96875 1.375ZM9.625 9.625H1.375V3.4375H9.625V9.625ZM9.625 2.75H1.375V2.0625H9.625V2.75ZM2.75 5.5H2.0625V6.1875H2.75V5.5ZM2.0625 6.875H2.75V7.5625H2.0625V6.875ZM2.75 8.25H2.0625V8.9375H2.75V8.25ZM4.125 5.5H4.8125V6.1875H4.125V5.5ZM4.8125 6.875H4.125V7.5625H4.8125V6.875ZM4.125 8.25H4.8125V8.9375H4.125V8.25ZM4.8125 4.125H4.125V4.8125H4.8125V4.125ZM6.1875 5.5H6.875V6.1875H6.1875V5.5ZM6.875 6.875H6.1875V7.5625H6.875V6.875ZM6.1875 8.25H6.875V8.9375H6.1875V8.25ZM6.875 4.125H6.1875V4.8125H6.875V4.125ZM8.25 5.5H8.9375V6.1875H8.25V5.5ZM8.9375 6.875H8.25V7.5625H8.9375V6.875ZM8.25 4.125H8.9375V4.8125H8.25V4.125Z" fill="white"/>
</svg>
