<svg width="25" height="32" viewBox="0 0 25 32" fill="none" xmlns="http://www.w3.org/2000/svg">
<path d="M21.0316 31.6654C20.2259 31.4796 19.6944 30.9336 19.1754 30.3422C17.6527 28.6059 16.1065 26.8903 14.578 25.159C14.4426 25.0062 14.3339 24.9971 14.1551 25.0583C10.0566 26.4476 5.81851 23.9572 5.09308 19.7364C4.44705 15.9806 7.25934 12.2966 11.1013 11.8671C14.9298 11.4392 18.1692 13.8668 18.755 17.6309C18.9748 19.0442 18.7316 20.4038 18.0722 21.6775C17.946 21.9211 17.9945 22.0525 18.1575 22.235C19.8156 24.0869 21.4662 25.9454 23.1201 27.8014C23.5062 28.2351 23.7235 28.7331 23.731 29.3155C23.7444 30.3802 23.0741 31.2764 22.0403 31.5754C21.9534 31.601 21.869 31.6349 21.7838 31.6654C21.5322 31.6654 21.2815 31.6654 21.0316 31.6654ZM11.8693 24.452C15.1095 24.4999 17.768 21.9021 17.829 18.6295C17.8883 15.4172 15.2516 12.7716 11.9295 12.7096C8.71103 12.6501 5.99318 15.2702 5.94304 18.4809C5.89038 21.7873 8.48537 24.4016 11.8693 24.452ZM15.4296 24.585C15.4613 24.6221 15.5324 24.7072 15.6059 24.7907C16.099 25.349 16.5929 25.9074 17.0869 26.4649C18.1767 27.6982 19.2673 28.9297 20.3563 30.1638C20.7048 30.5586 21.1319 30.756 21.6617 30.647C22.7148 30.4289 23.0758 29.2601 22.3445 28.43C20.7508 26.6202 19.1512 24.8163 17.5549 23.0081C17.4964 22.9412 17.4563 22.8586 17.4479 22.8446C16.745 23.4509 16.0982 24.0084 15.4296 24.585Z" fill="black"/>
<path d="M18.1106 7.58839C16.2628 5.44327 14.4735 3.36672 12.6499 1.25134C10.7385 3.35185 8.84137 5.43584 6.89993 7.56939C7.06708 7.57765 7.16654 7.58674 7.26599 7.58756C7.87107 7.58921 8.47531 7.58343 9.08039 7.59087C9.45815 7.59582 9.63784 7.77341 9.64034 8.14263C9.64536 9.04958 9.64536 9.95569 9.64034 10.8626C9.63867 11.1988 9.43224 11.4111 9.13555 11.407C8.84304 11.4028 8.64497 11.1881 8.6433 10.8478C8.63828 10.1077 8.64163 9.36676 8.64163 8.5928C8.51292 8.58702 8.40344 8.57876 8.29396 8.57793C7.50167 8.57711 6.70938 8.57628 5.91626 8.57793C5.66303 8.57876 5.43654 8.53581 5.31369 8.2814C5.18916 8.02204 5.31369 7.83123 5.48335 7.64456C7.72231 5.18639 9.95793 2.72574 12.1961 0.267574C12.5253 -0.0942125 12.8128 -0.0892565 13.1338 0.283268C15.2566 2.74557 17.3768 5.21034 19.4996 7.67181C19.6618 7.86014 19.747 8.05838 19.6359 8.29296C19.5297 8.51763 19.3225 8.57711 19.0893 8.57711C18.4115 8.57711 17.7337 8.57711 17.0559 8.57711C16.9431 8.57711 16.8294 8.57711 16.6731 8.57711C16.6731 8.71587 16.6731 8.82573 16.6731 8.93559C16.6731 9.7492 16.6756 10.5636 16.6715 11.3772C16.6698 11.7638 16.4701 11.9943 16.1633 11.986C15.8683 11.9777 15.6753 11.7522 15.6736 11.3847C15.6686 10.3134 15.6677 9.24203 15.6744 8.16989C15.6769 7.75937 15.8541 7.59334 16.2728 7.58921C16.8537 7.58426 17.4353 7.58839 18.1106 7.58839Z" fill="black"/>
<path d="M5.33478 10.0665C4.10372 11.4203 2.89356 12.751 1.62156 14.1494C2.04361 14.1494 2.38961 14.1477 2.73561 14.1502C3.21198 14.1535 3.3783 14.3129 3.3783 14.7788C3.37913 17.8911 3.37913 21.0027 3.3783 24.115C3.3783 24.5082 3.19527 24.7337 2.88437 24.7395C2.56177 24.7453 2.37791 24.5173 2.37791 24.1018C2.37707 21.2472 2.37791 18.3933 2.37791 15.5387C2.37791 15.4173 2.37791 15.2959 2.37791 15.1397C1.78704 15.1397 1.22709 15.148 0.667974 15.134C0.509182 15.1298 0.32699 15.0968 0.198285 15.0134C-0.0691535 14.8399 -0.0624675 14.5244 0.196614 14.2394C1.24715 13.0797 2.30018 11.9241 3.35239 10.7669C3.86136 10.2077 4.36865 9.64686 4.87846 9.08848C5.20858 8.72752 5.4944 8.73 5.81616 9.1017C6.42626 9.80627 7.03385 10.5133 7.63976 11.2204C7.90553 11.531 7.91556 11.8357 7.67152 12.0323C7.43668 12.2215 7.14082 12.1604 6.88759 11.868C6.38029 11.2799 5.87383 10.6909 5.33478 10.0665Z" fill="black"/>
<path d="M22.2995 16.3365C22.2995 16.496 22.2995 16.6174 22.2995 16.738C22.2995 18.8088 22.2995 20.8787 22.2995 22.9495C22.2995 23.042 22.3028 23.1353 22.2961 23.2278C22.2761 23.5268 22.0813 23.7276 21.8114 23.7325C21.5481 23.7375 21.3358 23.5359 21.3032 23.2435C21.2932 23.1518 21.2982 23.0585 21.2982 22.966C21.2982 20.6896 21.2982 18.4131 21.2982 16.1367C21.2982 15.4709 21.4202 15.352 22.1056 15.347C22.195 15.3462 22.2844 15.3396 22.434 15.3321C21.5314 14.2848 20.6647 13.2787 19.7763 12.247C19.4295 12.6262 19.1036 12.983 18.7776 13.339C18.7074 13.415 18.6422 13.4968 18.5645 13.5645C18.3539 13.7504 18.0798 13.7528 17.885 13.5769C17.6861 13.3977 17.6485 13.1242 17.8349 12.9111C18.3539 12.3197 18.8787 11.7333 19.4195 11.1617C19.6668 10.8998 19.9752 10.9502 20.2485 11.2666C21.1219 12.2768 21.9919 13.2894 22.8636 14.3013C23.1879 14.6779 23.5113 15.0546 23.8372 15.4296C23.9952 15.6113 24.1022 15.8013 23.986 16.0466C23.8715 16.2886 23.6634 16.3415 23.4168 16.3374C23.0625 16.3316 22.709 16.3365 22.2995 16.3365Z" fill="black"/>
<path d="M13.4584 17.9654C13.4584 16.9254 13.4559 15.8863 13.4593 14.8464C13.4609 14.459 13.6891 14.2368 14.0267 14.2781C14.3025 14.312 14.4571 14.5135 14.458 14.8596C14.4605 15.9094 14.4588 16.9593 14.4588 18.01C14.4588 19.0185 14.4588 20.0279 14.4588 21.0364C14.4588 21.494 14.3 21.7121 13.9657 21.717C13.6231 21.722 13.4576 21.4965 13.4576 21.0232C13.4576 20.0031 13.4584 18.9838 13.4584 17.9654Z" fill="black"/>
<path d="M12.3469 19.2738C12.3469 19.8909 12.3494 20.5079 12.346 21.1249C12.3435 21.5024 12.1689 21.7114 11.863 21.7171C11.5429 21.7238 11.3481 21.5082 11.3473 21.1191C11.3431 19.8958 11.344 18.6717 11.3473 17.4484C11.3481 17.0676 11.5504 16.8314 11.8546 16.833C12.1622 16.8355 12.3452 17.061 12.3469 17.4542C12.3494 18.0605 12.3469 18.6667 12.3469 19.2738Z" fill="black"/>
<path d="M8.13875 19.9469C8.13875 20.3475 8.14209 20.7481 8.13791 21.1487C8.13373 21.5122 7.94068 21.722 7.62727 21.7154C7.32891 21.7096 7.14087 21.5039 7.1392 21.1578C7.13502 20.3252 7.13418 19.4934 7.1392 18.6608C7.14087 18.3156 7.33225 18.1124 7.63312 18.1099C7.93566 18.1074 8.13206 18.3114 8.13708 18.6509C8.14376 19.0837 8.13875 19.5157 8.13875 19.9469Z" fill="black"/>
<path d="M15.5694 19.914C15.5694 19.4911 15.5635 19.069 15.5719 18.6461C15.5777 18.3116 15.7591 18.1183 16.0491 18.1108C16.3533 18.1026 16.5614 18.2992 16.5656 18.6453C16.5756 19.4903 16.5756 20.3353 16.5656 21.1803C16.5614 21.5239 16.3508 21.7246 16.0499 21.7163C15.7524 21.7089 15.5752 21.5057 15.5702 21.1505C15.5652 20.7383 15.5694 20.3262 15.5694 19.914Z" fill="black"/>
<path d="M9.25189 20.4846C9.25189 20.2377 9.24353 19.9907 9.25356 19.7446C9.26609 19.4455 9.46333 19.2465 9.73411 19.2399C9.99737 19.2341 10.2305 19.4323 10.2406 19.7231C10.259 20.2261 10.2598 20.7308 10.2414 21.2338C10.2297 21.5477 10.0007 21.7336 9.70904 21.7154C9.43491 21.6989 9.26191 21.5064 9.25189 21.1934C9.24436 20.9571 9.25021 20.7201 9.25021 20.4838C9.25105 20.4846 9.25189 20.4846 9.25189 20.4846Z" fill="black"/>
</svg>
