<svg width="25" height="25" viewBox="0 0 25 25" fill="none" xmlns="http://www.w3.org/2000/svg">
<ellipse cx="12.3916" cy="12.2973" rx="12.3916" ry="12.2973" fill="#C9EBD2"/>
<path d="M9.22452 7.17933C9.15388 7.23119 9.09725 7.29532 9.05851 7.36734C9.01977 7.43937 8.99981 7.51762 9 7.59675L9 15.9034C8.99981 15.9826 9.01977 16.0608 9.05851 16.1328C9.09726 16.2049 9.15388 16.269 9.22452 16.3209C9.36897 16.4341 9.55865 16.4971 9.75561 16.4971C9.95256 16.4971 10.1422 16.4341 10.2867 16.3209L15.5724 12.1662C15.6429 12.1143 15.6994 12.0501 15.7381 11.9781C15.7768 11.9061 15.7968 11.8279 15.7968 11.7488C15.7968 11.6697 15.7768 11.5915 15.7381 11.5195C15.6994 11.4475 15.6429 11.3834 15.5724 11.3314L10.2867 7.17677C10.1424 7.06331 9.95263 7.00024 9.75561 7.00024C9.55858 7.00024 9.36886 7.06331 9.22452 7.17677L9.22452 7.17933Z" fill="#F8F8F8"/>
</svg>
