<svg width="18" height="18" viewBox="0 0 18 18" fill="none" xmlns="http://www.w3.org/2000/svg">
<path d="M17.549 10.4739C17.549 10.1772 17.3083 9.93658 17.0116 9.93658H15.9361V2.61001C15.9361 1.17085 14.7652 0 13.3261 0C11.8869 0 10.7161 1.17085 10.7161 2.61001V3.5896C10.7161 3.88636 10.9567 4.12697 11.2534 4.12697C11.5502 4.12697 11.7908 3.88636 11.7908 3.5896V2.61001C11.7908 1.76344 12.4795 1.07473 13.3261 1.07473C14.1726 1.07473 14.8614 1.76344 14.8614 2.61001V9.93655H0.537364C0.24061 9.93655 0 10.1772 0 10.4739C0 12.8991 1.53391 14.9726 3.68241 15.7758C3.26912 16.2102 3.0135 16.806 3.0135 17.4626C3.0135 17.7594 3.2541 18 3.55086 18C3.84761 18 4.08822 17.7594 4.08822 17.4626C4.08822 16.7289 4.64809 16.1319 5.33631 16.1319C5.36159 16.1319 12.1874 16.1319 12.2127 16.1319C12.9009 16.1319 13.4608 16.7289 13.4608 17.4626C13.4608 17.7594 13.7014 18 13.9982 18C14.2949 18 14.5355 17.7594 14.5355 17.4626C14.5355 16.806 14.2799 16.2103 13.8666 15.7758C16.0151 14.9726 17.549 12.8991 17.549 10.4739ZM11.8909 15.0572H5.65806C3.3125 15.0572 1.37285 13.2863 1.10605 11.0113H16.4429C16.1761 13.2863 14.2364 15.0572 11.8909 15.0572Z" fill="#4E4B66"/>
<path d="M17.549 10.4739C17.549 10.1772 17.3083 9.93658 17.0116 9.93658H15.9361V2.61001C15.9361 1.17085 14.7652 0 13.3261 0C11.8869 0 10.7161 1.17085 10.7161 2.61001V3.5896C10.7161 3.88636 10.9567 4.12697 11.2534 4.12697C11.5502 4.12697 11.7908 3.88636 11.7908 3.5896V2.61001C11.7908 1.76344 12.4795 1.07473 13.3261 1.07473C14.1726 1.07473 14.8614 1.76344 14.8614 2.61001V9.93655H0.537364C0.24061 9.93655 0 10.1772 0 10.4739C0 12.8991 1.53391 14.9726 3.68241 15.7758C3.26912 16.2102 3.0135 16.806 3.0135 17.4626C3.0135 17.7594 3.2541 18 3.55086 18C3.84761 18 4.08822 17.7594 4.08822 17.4626C4.08822 16.7289 4.64809 16.1319 5.33631 16.1319C5.36159 16.1319 12.1874 16.1319 12.2127 16.1319C12.9009 16.1319 13.4608 16.7289 13.4608 17.4626C13.4608 17.7594 13.7014 18 13.9982 18C14.2949 18 14.5355 17.7594 14.5355 17.4626C14.5355 16.806 14.2799 16.2103 13.8666 15.7758C16.0151 14.9726 17.549 12.8991 17.549 10.4739ZM11.8909 15.0572H5.65806C3.3125 15.0572 1.37285 13.2863 1.10605 11.0113H16.4429C16.1761 13.2863 14.2364 15.0572 11.8909 15.0572Z" fill="#4E4B66"/>
<path d="M17.549 10.4739C17.549 10.1772 17.3083 9.93658 17.0116 9.93658H15.9361V2.61001C15.9361 1.17085 14.7652 0 13.3261 0C11.8869 0 10.7161 1.17085 10.7161 2.61001V3.5896C10.7161 3.88636 10.9567 4.12697 11.2534 4.12697C11.5502 4.12697 11.7908 3.88636 11.7908 3.5896V2.61001C11.7908 1.76344 12.4795 1.07473 13.3261 1.07473C14.1726 1.07473 14.8614 1.76344 14.8614 2.61001V9.93655H0.537364C0.24061 9.93655 0 10.1772 0 10.4739C0 12.8991 1.53391 14.9726 3.68241 15.7758C3.26912 16.2102 3.0135 16.806 3.0135 17.4626C3.0135 17.7594 3.2541 18 3.55086 18C3.84761 18 4.08822 17.7594 4.08822 17.4626C4.08822 16.7289 4.64809 16.1319 5.33631 16.1319C5.36159 16.1319 12.1874 16.1319 12.2127 16.1319C12.9009 16.1319 13.4608 16.7289 13.4608 17.4626C13.4608 17.7594 13.7014 18 13.9982 18C14.2949 18 14.5355 17.7594 14.5355 17.4626C14.5355 16.806 14.2799 16.2103 13.8666 15.7758C16.0151 14.9726 17.549 12.8991 17.549 10.4739ZM11.8909 15.0572H5.65806C3.3125 15.0572 1.37285 13.2863 1.10605 11.0113H16.4429C16.1761 13.2863 14.2364 15.0572 11.8909 15.0572Z" fill="#4E4B66"/>
<path d="M11.2522 5.05908C10.9555 5.05908 10.7148 5.29969 10.7148 5.59645V6.06216C10.7148 6.35892 10.9555 6.59953 11.2522 6.59953C11.549 6.59953 11.7896 6.35892 11.7896 6.06216V5.59645C11.7895 5.29966 11.549 5.05908 11.2522 5.05908Z" fill="#4E4B66"/>
<path d="M11.2522 7.63867C10.9555 7.63867 10.7148 7.87928 10.7148 8.17604V8.64175C10.7148 8.93851 10.9555 9.17912 11.2522 9.17912C11.549 9.17912 11.7896 8.93851 11.7896 8.64175V8.17604C11.7895 7.87925 11.549 7.63867 11.2522 7.63867Z" fill="#4E4B66"/>
</svg>
