<svg width="23" height="22" viewBox="0 0 23 22" fill="none" xmlns="http://www.w3.org/2000/svg">
<path d="M22.0476 6.92786C20.5079 7.90691 19.0601 8.82494 17.6123 9.74575C15.5621 11.0507 13.5173 12.3612 11.4589 13.6522C11.2764 13.7673 10.9429 13.8658 10.7974 13.7757C9.16162 12.7716 7.54915 11.7288 5.83102 10.6333C6.87535 9.96624 7.83047 9.35468 8.78698 8.74451C9.4251 8.33819 10.0769 7.95267 10.6959 7.51723C10.8811 7.38688 10.9744 7.11923 11.1089 6.91538C10.8715 6.9445 10.5902 6.90012 10.4049 7.01522C8.86382 7.96654 7.3337 8.93588 5.81867 9.92741C5.42893 10.1826 5.14074 10.238 4.71944 9.95653C3.3485 9.0385 1.94051 8.17455 0.550358 7.28564C0.380192 7.17748 0.22512 7.05267 6.10352e-05 6.88903C0.672494 6.45914 1.28317 6.06668 1.8966 5.67701C4.75924 3.85619 7.626 2.04093 10.4845 0.213187C10.818 -0.000372949 11.0801 -0.10438 11.4712 0.146623C14.843 2.31412 18.2312 4.45805 21.6126 6.61029C21.7251 6.6824 21.8294 6.767 22.0476 6.92786Z" fill="white"/>
<path d="M19.2302 9.4751C19.2302 10.8924 19.2453 12.1585 19.2124 13.4232C19.2082 13.5979 18.9997 13.8198 18.8281 13.9294C16.3758 15.4992 13.9084 17.0454 11.4588 18.618C11.1047 18.8454 10.8564 18.7941 10.5339 18.5861C9.26859 17.7679 7.98685 16.9733 6.56514 16.0761C6.62964 17.1092 6.32087 18.0106 6.91096 18.851C7.18817 19.2448 7.41323 19.6775 7.63417 20.1087C7.91275 20.6537 7.7069 21.0074 7.09348 21.0295C6.49927 21.0517 5.90368 21.0531 5.30947 21.0268C4.73722 21.0018 4.54921 20.6593 4.78662 20.142C4.80583 20.1004 4.82367 20.056 4.85249 20.02C5.8433 18.7955 5.97642 17.3713 5.89819 15.8542C5.82409 14.43 5.88173 13.0002 5.88173 11.4374C6.19461 11.6162 6.40595 11.7286 6.60905 11.8562C7.88667 12.666 9.17253 13.4648 10.4337 14.301C10.8495 14.577 11.1555 14.5978 11.5947 14.3121C13.8809 12.8227 16.1905 11.3736 18.4933 9.91054C18.6827 9.79266 18.8789 9.68311 19.2302 9.4751Z" fill="white"/>
<path d="M2.78734 9.43604C3.6272 9.96716 4.32296 10.3984 5.005 10.8505C5.10106 10.9143 5.18614 11.0752 5.18751 11.1931C5.19987 12.4772 5.19575 13.7613 5.19575 15.2022C4.37236 14.678 3.66288 14.2342 2.96574 13.771C2.87105 13.7086 2.79557 13.5408 2.79557 13.4202C2.78322 12.1555 2.78734 10.8921 2.78734 9.43604Z" fill="white"/>
</svg>
